<?xml version="1.0" encoding="utf-8"?>
<!-- Generator: Adobe Illustrator 14.0.0, SVG Export Plug-In . SVG Version: 6.00 Build 43363)  -->
<!DOCTYPE svg PUBLIC "-//W3C//DTD SVG 1.1//EN" "http://www.w3.org/Graphics/SVG/1.1/DTD/svg11.dtd">
<svg version="1.1" id="Layer_1" xmlns="http://www.w3.org/2000/svg" xmlns:xlink="http://www.w3.org/1999/xlink" x="0px" y="0px"
	 width="114.814px" height="159.259px" viewBox="0 0 114.814 159.259" enable-background="new 0 0 114.814 159.259"
	 xml:space="preserve">
<g>
	<g>
		<g>
			<path fill-rule="evenodd" clip-rule="evenodd" d="M55.788,68.224c-1.043,0.727-1.902,1.638-3.717,1.595
				C52.606,68.583,54.15,68.356,55.788,68.224z"/>
			<path fill-rule="evenodd" clip-rule="evenodd" d="M55.788,70.349c0.477-0.035,0.559,0.325,1.063,0.266
				c-1.676,0.89-2.523,2.612-5.046,2.654C52.789,71.951,54.899,71.761,55.788,70.349z"/>
			<path fill-rule="evenodd" clip-rule="evenodd" fill="#FFFFFF" d="M41.715,77.252c-1.363-0.671-2.216-0.396-3.449,0.265
				C37.59,75.886,41.658,74.802,41.715,77.252z"/>
			<path fill-rule="evenodd" clip-rule="evenodd" fill="#FFFFFF" d="M39.592,78.048c0.62,0,1.239,0,1.856,0
				c0.854,1.638,1.448,2.283,1.064,4.779c-0.853-0.197-1.771,0.5-3.452,0C38.996,80.714,39.469,80.269,39.592,78.048z"/>
			<path fill-rule="evenodd" clip-rule="evenodd" d="M54.726,84.42c0.354,0,0.708,0,1.062,0c-0.158,0.55-0.41,1.006-1.329,0.797
				C54.601,85.003,54.736,84.788,54.726,84.42z"/>
			<path fill-rule="evenodd" clip-rule="evenodd" d="M54.196,85.483c-0.281,0.694-1.079,0.867-2.125,0.797
				C52.236,85.083,53.279,85.357,54.196,85.483z"/>
			<path fill-rule="evenodd" clip-rule="evenodd" fill="#FFFFFF" d="M43.044,93.713c0.429-0.076,0.456,0.252,0.798,0.266
				c-0.516,2.077-0.646,4.221-1.329,6.639C41.042,98.747,43.742,96.568,43.044,93.713z"/>
			<path fill-rule="evenodd" clip-rule="evenodd" d="M61.098,34.771c3.698,2.675,8.229,4.132,12.216,6.519
				c5.652,9.539,8.388,20.756,12.477,31.713c0.12,0.932,0.85,1.63,1.328,2.921c4.11,7.309,6.837,15.996,10.887,23.366
				c0,0.265,0,0.528,0,0.794c-2.859,2.099-7.413,2.501-9.823,5.044c-2.433-1.372-4.128,0.932-6.904,0.8
				c-0.187,1.158,0.45,1.494,0.266,2.653c-1.434,0.163-2.641,0.545-4.249,0.53c-0.662,0.508,0.332,1.153-0.265,1.86
				c-3.193,0.907-8.537-0.58-10.62,0.795c-0.307,7.131-0.161,16.502-1.859,23.098c-0.737,0.68-1.445,1.391-2.123,2.125
				c-0.445,2.178,1.647,2.561,1.592,5.045c-1.354,1.537-4.33,0.385-6.638,0.533c-1.123-1.004-1.883-4.871-2.123-6.906
				c-0.567-4.781,1.929-9.844,2.123-15.396c0.196-5.561-0.752-11.4-2.389-15.932c-3.217,1.751-2.468,9.038-3.187,14.073
				c-0.396,2.773-1.585,5.459-1.859,7.965c-0.62,5.664,0.631,11.535-0.266,16.725c-1.162,1.201-3.28,0.58-5.31,1.066
				c-1.421,0.336-2.57,1.416-3.717,1.592c-2.674,0.412-6.502-0.439-6.372-2.658c0.153-2.598,5.455-1.746,6.372-4.244
				c1.529-9.113,0.805-20.598,1.328-30.005c-3.184-1.225-7.956,1.766-10.09-0.796c2.93-11.952-1.137-24.707,0.266-37.436
				c1.764-2.552,0.605-6.437,1.062-10.355c0.884-2.546,1.516-7.505,3.185-10.622c1.033-1.924,2.934-6.055,4.779-7.964
				c2.515-2.599,6.768-4.059,10.09-6.107c0.442-0.532-0.021-1.97,0.531-2.39c1.809,9.309-1.852,19.447-3.982,28.144
				c-0.716,2.921-1.278,5.89-0.797,9.027c-1.157,0.359-0.96-0.633-1.592-0.797c-2.253,6.104,1.903,14.087-1.063,18.853
				c0,0.796,0,1.593,0,2.388c0.391,1.012-1.187,0.055-0.796,1.064c0.426,1.851,0.835,2.137,1.859,3.45
				c7.784,0.083,11.628-3.77,14.337-8.76c-1.307-2.173-0.072-3.864-1.062-5.841c1.306-5.743-0.644-8.941,0.529-13.541
				c-0.857-2.623-0.777-4.432-0.529-7.17c-1.247-0.274-1.022,0.925-2.39,0.53c0.617-0.884,2.098-0.91,2.919-1.591
				c0.922-6.158,2.78-15.283,0.509-21.548c-0.783,1.096-3.445,3.321-4.073,3.524c-3.132-2.35-2.772-5.89-3.603-9.059 M38.266,77.518
				c1.233-0.661,2.086-0.937,3.449-0.265C41.658,74.802,37.59,75.886,38.266,77.518z M39.061,82.827c1.681,0.5,2.6-0.197,3.452,0
				c0.384-2.496-0.211-3.141-1.064-4.779c-0.617,0-1.236,0-1.856,0C39.469,80.269,38.996,80.714,39.061,82.827z M42.513,100.618
				c0.684-2.418,0.813-4.562,1.329-6.639c-0.342-0.014-0.369-0.342-0.798-0.266C43.742,96.568,41.042,98.747,42.513,100.618z"/>
			<path fill-rule="evenodd" clip-rule="evenodd" d="M56.852,88.404c-0.378,0.683-0.555,1.569-1.594,1.593
				c0.006-0.258,0.323-0.206,0.53-0.266c-0.14-0.214-0.277-0.432-0.265-0.797C56.527,89.319,56.033,88.206,56.852,88.404z"/>
		</g>
		<path fill-rule="evenodd" clip-rule="evenodd" d="M52.36,34.583c0,0-10.634,10.061-10.271,7.278
			c-0.476-1.17,0.968-1.244,1.18-2.113c1.43-1.112,3.274-2.02,5.158-2.733c0.443-0.168,0.941-0.51,1.367-0.808
			c0.354-0.246,2.165-1.062,1.93-1.646c-0.34,0.137-1.495,0.646-1.912,0.707c-0.407-0.015-0.452,0.015-0.828-0.03
			c-0.259-0.03-0.533-0.131-0.739-0.287c-0.248-0.187-0.447-0.732-0.501-1.043c-0.096-0.563,0.31-1.136,0.248-1.74
			c-0.086-0.831-1.053-1.012-0.62-1.802c-0.44-0.482-0.47-1.465,0-1.926c-0.164-0.356-0.569-0.466-0.746-0.809
			c-0.1-0.928,0.744-1.686,0.948-2.31c-1.719,0.124-4.517,0.774-4.863-1.169c-0.051-0.285,0.043-0.49,0-0.745
			c-0.094-0.559-0.358-0.896-0.187-1.554c0.283-1.093,1.638-1.269,2.298-2.299c0.645-1.141,1.509-2.196,2.425-3.169
			c0.401-0.427,1.291-0.916,1.927-1.368c0.749-0.498,3.443-1.25,3.729-1.304c1.081-0.283,1.673-0.264,2.875-0.264
			c0.833,0.127,0.741,0.139,1.536,0.326c0.394,0.209,0.496,0.197,0.808,0.373c0.521,0.375,1.294,1.021,1.864,1.741
			c0.536,0.795,0.55,0.823,0.808,1.242c0.363,1.812,0.475,2.62,0.686,4.164c0.318-0.021,0.054,0.618-0.498,0.435
			c-0.139,0.912,0.968,2.117,0.682,3.169c0.625,0.671-0.401,1.706,0.125,2.672c-0.812,1.229,0.672,2.148-0.061,3.418
			c0.106,0.006,0.082,0.138,0.125,0.187c0.157,0.187,0.508,0.298,0.557,0.558c0.094,0.478-0.477,0.653-0.621,1.119
			c-0.065,0.212,0.023,0.797,0.064,0.621c-0.265,0.446-0.395-0.678-0.81-0.684c0.062,0.464,0.455,1.114,0.81,1.491
			c0.167-0.038,0.475-1.427,0.574-1.537c-0.155-0.051,1.13,3.058,0.822,3.807c0.421-0.256-2.431-1.519-1.954-1.429
			C61.614,35.181,52.36,34.583,52.36,34.583z M59.735,32.789c0.695-0.344-0.159-1.488-0.433-1.864
			C59.3,31.827,59.349,32.293,59.735,32.789z M74.961,45.341c-0.043-0.308-0.083-0.622-0.31-0.746
			C74.662,44.935,74.799,45.151,74.961,45.341z"/>
		
			<ellipse transform="matrix(0.1285 0.9917 -0.9917 0.1285 72.4493 -37.9075)" fill="#FFFFFF" cx="57.793" cy="22.269" rx="0.194" ry="3.434"/>
	</g>
	<g>
		<path fill-rule="evenodd" clip-rule="evenodd" fill="#17364E" d="M91.396,61.245c0,14.123-11.449,25.571-25.571,25.571
			c-14.124,0-25.572-11.448-25.572-25.571c0-14.123,11.325-24.956,25.45-24.956C79.822,36.289,91.396,47.122,91.396,61.245z"/>
		<ellipse fill-rule="evenodd" clip-rule="evenodd" fill="#FFFFFF" cx="84.121" cy="47.579" rx="2.864" ry="3.468"/>
		<g>
			<path fill-rule="evenodd" clip-rule="evenodd" fill="#FFFFFF" d="M71.731,32.554c0,0.102,0,0.202,0,0.303
				c-0.179-0.023-0.506,0.102-0.404-0.202C71.417,32.577,71.556,32.546,71.731,32.554z"/>
			<path fill-rule="evenodd" clip-rule="evenodd" fill="#FFFFFF" d="M80.836,34.78c0.173,0.603,0.047,1.504,0.406,1.921
				c0.049,0.319-0.311,0.229-0.203,0.607c-0.351,0.081-0.389-0.151-0.708-0.101c-0.279,0.075-0.229,1.128-0.809,1.214
				c-0.61-0.335-0.839-1.051-1.315-1.518c0.501-0.78,1.378-1.185,1.72-2.124C80.428,34.791,80.424,34.681,80.836,34.78z"/>
			<path fill-rule="evenodd" clip-rule="evenodd" fill="#FFFFFF" d="M69.811,34.78c0.194,0.455-0.335,1.581,0.101,2.428
				c-1.312,0.799-2.784-0.238-2.531-1.417C67.586,34.845,69.189,35.125,69.811,34.78z"/>
			<path fill-rule="evenodd" clip-rule="evenodd" fill="#205997" d="M60.199,38.018c0.11,0.191,0.252,0.354,0.304,0.607
				c-0.313-0.302-0.201,0.394-0.71,0.203C59.579,38.207,60.293,38.517,60.199,38.018z"/>
			<path fill-rule="evenodd" clip-rule="evenodd" fill="#FFFFFF" d="M77.093,39.231c0.549,0.158,1.751-0.261,1.923,0.506
				c-0.183,0.894-0.284,1.874-1.011,2.225c0.987,0.61,0.657,2.058-0.102,2.732c-2.138,0.496-2.365-1.371-3.44-2.227
				c0.883-0.399,1.038-1.524,2.327-1.517C77.09,40.377,77.031,39.887,77.093,39.231z"/>
			<path fill-rule="evenodd" clip-rule="evenodd" fill="#205997" d="M58.378,39.535c0.399-0.062,0.119,0.556,0.203,0.81
				C58.347,40.241,58.371,39.878,58.378,39.535z"/>
			<path fill-rule="evenodd" clip-rule="evenodd" fill="#FFFFFF" d="M83.669,39.636c0.141,0.049,0.246,0.912-0.101,0.809
				C83.629,40.203,83.713,39.983,83.669,39.636z"/>
			<path fill-rule="evenodd" clip-rule="evenodd" fill="#205997" d="M60.906,40.142c0.16,0.008,0.387-0.048,0.406,0.102
				c0.046,0.216-0.146,0.192-0.305,0.202c0,0.135,0,0.27,0,0.405c-0.211,0.043-0.268-0.069-0.404-0.101
				C60.516,40.356,61.044,40.583,60.906,40.142z"/>
			<path fill-rule="evenodd" clip-rule="evenodd" fill="#939FAB" d="M81.747,42.57c-0.409,0.129-0.815,0.263-0.809,0.81
				c-0.129,0.005-0.141,0.13-0.305,0.101c0.015-0.285-0.247-0.292-0.505-0.303c-0.196,0.182-0.384,0.813-0.102,0.91
				c-0.234,0.206-0.451-0.07-0.809,0.102c-0.082-1.868,1.054-2.521,1.922-3.439C81.801,41.113,81.236,42.075,81.747,42.57z"/>
			<path fill-rule="evenodd" clip-rule="evenodd" fill="#205997" d="M59.995,40.85c0.104,0,0.204,0,0.305,0
				c0.141,0.129,0.062,0.478,0.203,0.606c0.632-0.107,0.841-0.019,1.011,0.506c-0.175,0.162-0.625,0.049-0.708,0.304
				c-0.339-0.091-0.087-0.227,0-0.405c-0.184-0.439-0.907-0.068-1.013,0.203c-0.268-0.035-0.339-0.266-0.403-0.506
				C60.029,41.646,60.137,41.297,59.995,40.85z"/>
			<path fill-rule="evenodd" clip-rule="evenodd" fill="#205997" d="M58.883,40.951c0.388-0.023,0.507,0.556,0.305,0.809
				C58.885,41.692,58.849,41.357,58.883,40.951z"/>
			<path fill-rule="evenodd" clip-rule="evenodd" fill="#205997" d="M60.503,42.468c0.224-0.055,0.144,0.194,0.303,0.204
				c-0.075,0.362-0.234,0.643-0.606,0.708C60.076,42.955,60.177,42.678,60.503,42.468z"/>
			<path fill-rule="evenodd" clip-rule="evenodd" fill="#44B4E4" d="M81.747,42.57c0.15,0.052,0.256,0.149,0.405,0.203
				c0.021,0.113,0.111,0.158,0.202,0.202c-0.031,0.137-0.144,0.193-0.1,0.405c-0.325,0.081-0.511,0.299-0.912,0.304
				c-0.031-0.138-0.145-0.194-0.101-0.405c-0.14-0.004-0.223,0.047-0.304,0.101C80.932,42.833,81.338,42.699,81.747,42.57z"/>
			<path fill-rule="evenodd" clip-rule="evenodd" fill="#17364E" d="M63.234,43.379c0.316,0.158,0.273,0.206,0.707,0.101
				c-0.017,0.118,0.023,0.181,0.103,0.203c0.025,0.565-0.409,0.67-0.507,1.112C63.563,44.353,63.237,43.861,63.234,43.379z"/>
			<path fill-rule="evenodd" clip-rule="evenodd" fill="#44B4E4" d="M81.95,43.683c0.168,0,0.338,0,0.505,0
				c0.005,0.442-0.252,0.624-0.403,0.911C81.642,44.484,82.082,44.112,81.95,43.683z"/>
			<path fill-rule="evenodd" clip-rule="evenodd" fill="#205997" d="M56.051,44.087c0.59,0.142,0.251,0.596,0.303,1.214
				c-0.201,0-0.403,0-0.605,0C55.843,44.891,56.068,44.611,56.051,44.087z"/>
			<path fill-rule="evenodd" clip-rule="evenodd" fill="#17364E" d="M59.692,44.29c0.386,0.003,0.369,0.527-0.101,0.405
				C59.549,44.482,59.661,44.426,59.692,44.29z"/>
			<path fill-rule="evenodd" clip-rule="evenodd" fill="#205997" d="M56.051,46.111c-0.091,0.177-0.187,0.351-0.505,0.303
				c0-0.1,0-0.202,0-0.303C55.855,46.04,55.739,46.04,56.051,46.111z"/>
			<path fill-rule="evenodd" clip-rule="evenodd" fill="#FFFFFF" d="M78.813,46.111c0.164,0.83-0.77,1.071-0.606,0.101
				C78.325,46.095,78.565,46.097,78.813,46.111z"/>
			<path fill-rule="evenodd" clip-rule="evenodd" fill="#939FAB" d="M80.433,46.92c0.064,0.368-0.482,0.125-0.506,0.404
				C79.656,47.145,80.046,46.778,80.433,46.92z"/>
			<path fill-rule="evenodd" clip-rule="evenodd" fill="#939FAB" d="M80.027,49.044c-0.242,0.129-0.373,0.37-0.809,0.304
				c-0.04-0.546,0.092-0.921,0.708-0.81C79.886,48.782,80.11,48.758,80.027,49.044z"/>
			<path fill-rule="evenodd" clip-rule="evenodd" fill="#205997" d="M52.814,49.044c0.132,0.036,0.159,0.178,0.303,0.202
				c-0.386,0.279-0.058,0.661-0.202,1.113C52.312,50.307,52.777,49.387,52.814,49.044z"/>
			<path fill-rule="evenodd" clip-rule="evenodd" fill="#FFFFFF" d="M91.966,51.371c-0.361-0.448-0.64-0.979-1.417-1.012
				c-0.182-1.128,1.166-0.854,1.417-0.304C91.498,50.266,92.781,51.074,91.966,51.371z"/>
			<path fill-rule="evenodd" clip-rule="evenodd" fill="#FFFFFF" d="M90.953,51.776c0.228,0.05,0.499,0.571,0.811,0.202
				c0.179,0.191,0.333,0.409,0.304,0.809c-0.149,0.19-0.664,0.012-0.812,0.202c-0.007,0.919,0.317,1.506,0.203,2.529
				c-0.712,0.392-1.745-0.149-2.327-0.506c-0.288-1.428,0.714-1.743,1.417-2.63c0.319-0.049,0.229,0.311,0.606,0.203
				C91.29,52.115,90.82,52.247,90.953,51.776z"/>
			<path fill-rule="evenodd" clip-rule="evenodd" fill="#17364E" d="M83.669,53.395c-0.087,0.272-0.582,0.431-0.606,0
				C83.274,53.174,83.352,53.445,83.669,53.395z"/>
			<path fill-rule="evenodd" clip-rule="evenodd" fill="#17364E" d="M52.104,53.597c0.184-0.013,0.215,0.124,0.404,0.102
				c0.087,0.322-0.159,0.312-0.201,0.506C52.049,54.193,52.106,53.865,52.104,53.597z"/>
			<path fill-rule="evenodd" clip-rule="evenodd" fill="#17364E" d="M80.027,54.508c0.234-0.033,0.389,0.016,0.506,0.101
				c-0.014,0.188-0.067,0.338-0.202,0.404C80.047,55.028,80.04,54.766,80.027,54.508z"/>
			<path fill-rule="evenodd" clip-rule="evenodd" fill="#17364E" d="M82.052,54.508c0.022,0.36-0.145,0.528-0.507,0.505
				C81.521,54.653,81.69,54.484,82.052,54.508z"/>
			<path fill-rule="evenodd" clip-rule="evenodd" fill="#17364E" d="M80.433,55.721c0,0.169,0,0.338,0,0.506
				c-0.296,0.026-0.348-0.19-0.506-0.303C79.941,55.703,80.183,55.707,80.433,55.721z"/>
			<path fill-rule="evenodd" clip-rule="evenodd" fill="#205997" d="M86.099,56.43c0.401,0.074,0.406,0.074,0.809,0
				c-0.037,0.171,0.078,0.19,0.202,0.202c0.019,0.086-0.038,0.096-0.102,0.101c0,0.068,0,0.134,0,0.203
				C86.706,56.767,86.199,56.802,86.099,56.43z"/>
			<path fill-rule="evenodd" clip-rule="evenodd" fill="#205997" d="M50.082,56.733c0.044-0.227,0.498-0.041,0.708-0.101
				C50.709,57.214,50.33,56.636,50.082,56.733z"/>
			<path fill-rule="evenodd" clip-rule="evenodd" fill="#E4D6C7" d="M76.082,57.947c-0.212,0.058-0.289,0.251-0.606,0.202
				c0.071-0.476-0.208-0.602-0.304-0.91C75.547,57.047,76.113,57.41,76.082,57.947z"/>
			<path fill-rule="evenodd" clip-rule="evenodd" fill="#205997" d="M80.736,57.441c0.1,0,0.202,0,0.303,0
				c0.066,0.37-0.068,0.539-0.203,0.708C80.452,58.04,80.585,57.736,80.736,57.441z"/>
			<path fill-rule="evenodd" clip-rule="evenodd" fill="#205997" d="M81.242,57.542c0.374-0.071,0.435,0.174,0.81,0.102
				c0.035,0.364,0.154,0.488,0,0.809c0.365,0.435,1.108-0.111,1.314,0.505c-0.055,0.284-0.487,0.188-0.709,0.304
				c-0.212-0.226-0.299-0.577-0.707-0.607c-0.5,0.006-0.469,0.543-1.114,0.405c-0.034-0.301-0.058-0.616-0.303-0.708
				c0.24-0.33,0.573,0.093,0.81,0.101C81.702,58.152,81.171,57.891,81.242,57.542z"/>
			<path fill-rule="evenodd" clip-rule="evenodd" fill="#E4D6C7" d="M64.144,58.655c0.229,0.067,0.507,0.304,0.304,0.507
				c1.465-0.312,2.451,1.537,1.417,2.529c-1.426,0.597-2.182-0.004-2.832-0.911c0.078-0.255,0.23-1.23,0.403-1.72
				c0.319-0.115,0.247,0.159,0.404,0.203C64.153,59.085,64.069,58.894,64.144,58.655z"/>
			<path fill-rule="evenodd" clip-rule="evenodd" fill="#17364E" d="M90.145,58.958c0.068,0.201,0.603-0.062,0.507,0.304
				C90.384,59.259,90.017,59.357,90.145,58.958z"/>
			<path fill-rule="evenodd" clip-rule="evenodd" fill="#205997" d="M87.616,59.06c0.101,0,0.202,0,0.304,0
				c0.041,0.346-0.031,0.577-0.406,0.505C87.431,59.28,87.657,59.304,87.616,59.06z"/>
			<path fill-rule="evenodd" clip-rule="evenodd" fill="#205997" d="M81.747,60.173c0.521-0.217,0.093,0.515,0.508,0.404
				c0.016,0.219-0.36,0.045-0.508,0.102C81.747,60.51,81.747,60.341,81.747,60.173z"/>
			<path fill-rule="evenodd" clip-rule="evenodd" fill="#205997" d="M90.953,60.679c0.079,0.482-0.157,0.651-0.1,1.113
				c-0.139-0.1-0.132-0.34-0.305-0.405C90.665,61.132,90.599,60.693,90.953,60.679z"/>
			<path fill-rule="evenodd" clip-rule="evenodd" fill="#205997" d="M90.549,62.803c-0.081-0.053-0.163-0.105-0.303-0.101
				c-0.026-0.297,0.229-0.312,0.201-0.607C90.661,62.178,90.725,62.629,90.549,62.803z"/>
			<path fill-rule="evenodd" clip-rule="evenodd" fill="#205997" d="M89.74,63.107c0.221,0.015,0.217,0.254,0.202,0.505
				c-0.358-0.054-0.25,0.358-0.607,0.304C89.6,63.555,89.557,63.516,89.74,63.107z"/>
			<path fill-rule="evenodd" clip-rule="evenodd" fill="#205997" d="M81.039,63.31c0.258,0.01,0.201,0.338,0.203,0.607
				C81.056,63.702,80.894,63.622,81.039,63.31z"/>
			<path fill-rule="evenodd" clip-rule="evenodd" fill="#17364E" d="M77.801,69.582c0.34-0.104,0.158,0.314,0.204,0.506
				C77.598,70.102,77.737,69.828,77.801,69.582z"/>
			<path fill-rule="evenodd" clip-rule="evenodd" fill="#205997" d="M50.689,70.896c0.101,0,0.202,0,0.304,0
				c-0.01,0.144-0.018,0.287,0.102,0.304C51.025,71.421,50.562,71.203,50.689,70.896z"/>
			<path fill-rule="evenodd" clip-rule="evenodd" fill="#205997" d="M53.319,74.336c0.153-0.268-0.994-0.379-0.505-1.012
				c0.116,0.085,0.271,0.134,0.505,0.102c-0.064-0.235-0.384-0.201,0-0.506c0.017-0.22-0.357-0.045-0.505-0.102
				c-0.058-0.461,0.178-0.63,0.101-1.113c0.134,0,0.269,0,0.404,0c-0.002,0.425,0.176,0.61,0.404,1.012
				c1.005-0.229,1.48,0.492,2.731,0.303c0.01,0.564,0.592,0.555,0.506,1.213c0.309-0.126,0.395-0.077,0.608,0.102
				c-0.026,0.11-0.201,0.069-0.204,0.203c0.367,0.34,0.816,0.6,1.416,0.708c-0.107,0.377,0.254,0.288,0.203,0.606
				c-0.103,0.066-0.104,0.233-0.303,0.203c0.045,0.36,0.409,0.399,0.606,0.606c0.118-0.335,0.659-0.116,0.707,0.203
				c-0.638,0.069-1.161,0.254-1.313,0.81c-0.316,0.048-0.286-0.254-0.405-0.404c-0.408-0.07-0.249,0.425-0.605,0.404
				c0.031-0.234-0.018-0.389-0.102-0.505c-0.238,0.032-0.228,0.312-0.405,0.404c0.041,0.228,0.593-0.054,0.405,0.405
				c-0.188,0.118-1.017-0.586-1.216,0.102c0.131,0.173,0.404,0.203,0.507,0.404c-0.075,0.863-0.98,0.288-1.416,0.809
				c0.241,0.398,0.043,1.239,0.606,1.315c-0.14,0.23-0.704,0.038-1.013,0.102c-0.052-0.251-0.246-0.36-0.403-0.506
				c-0.361,0.009-0.365,0.377-0.708,0.404c-0.557-0.522-1.205-0.953-2.227-1.011c-0.196-1.153-1.17-1.527-1.011-3.036
				c0.367-0.3,0.891-0.463,1.415-0.201c0.234-0.188-0.362-1.149,0.303-1.113c-0.01-0.426-0.476-0.401-0.504-0.81
				c0.376,0.108,0.159-0.38,0.504-0.303c-0.017,0.355,0.24,0.436,0.407,0.607C53.042,74.58,52.92,74.07,53.319,74.336z
				 M53.927,78.99c0.315-1.458,1.607-2.411,1.619-3.845c0.357,0.034,0.248,0.279,0.606,0.102c0.086-0.323-0.087-0.385-0.202-0.506
				c0.361-0.272,0.652-0.759,0.303-1.215c-0.603,0.005-0.664,0.549-1.215,0.607c-0.098,2.276-3.924,2.312-3.034,5.059
				C52.881,79.183,53.143,79.136,53.927,78.99z M56.354,77.675c0.135,0,0.271,0,0.405,0c-0.042-0.193-0.037-0.435-0.304-0.404
				C56.462,77.446,56.432,77.584,56.354,77.675z"/>
			<path fill-rule="evenodd" clip-rule="evenodd" fill="#205997" d="M51.497,72.112c-0.012,0.181,0.126,0.212,0.103,0.404
				c-0.191,0.201-0.478,0.048-0.708,0C50.855,72.144,51.26,72.209,51.497,72.112z"/>
			<path fill-rule="evenodd" clip-rule="evenodd" fill="#205997" d="M78.409,73.426c0.013,0.547-1.08,0.33-0.91-0.203
				C77.876,73.147,78.227,73.09,78.409,73.426z"/>
			<path fill-rule="evenodd" clip-rule="evenodd" fill="#205997" d="M51.194,74.438c0.22-0.017,0.046,0.359,0.102,0.506
				c-0.134,0-0.271,0-0.404,0C50.843,74.626,51.164,74.676,51.194,74.438z"/>
			<path fill-rule="evenodd" clip-rule="evenodd" fill="#17364E" d="M69.001,74.944c0.395,0.272-0.314,0.284-0.203,0.606
				c-0.11-0.024-0.068-0.201-0.202-0.202C68.627,75.111,68.909,75.122,69.001,74.944z"/>
			<path fill-rule="evenodd" clip-rule="evenodd" fill="#205997" d="M72.743,75.652c0.135,0,0.27,0,0.405,0
				c0.032,0.234-0.017,0.389-0.102,0.506C72.838,76.097,72.664,76.002,72.743,75.652z"/>
			<path fill-rule="evenodd" clip-rule="evenodd" fill="#205997" d="M67.483,76.562c0.345,0.077,0.127-0.41,0.506-0.302
				c0.006,0.296,0.231,0.375,0.403,0.505c-0.123,0.147-0.402,0.136-0.403,0.405c-0.476-0.18-0.309-0.318-0.812-0.103
				c-0.004-0.364-0.251-0.489-0.302-0.808C67.067,76.079,67.583,76.146,67.483,76.562z"/>
			<path fill-rule="evenodd" clip-rule="evenodd" fill="#205997" d="M70.518,76.562c-0.132,0.131-0.372,0.131-0.505,0
				C69.964,76.14,70.63,75.977,70.518,76.562z"/>
			<path fill-rule="evenodd" clip-rule="evenodd" fill="#205997" d="M65.056,76.461c0.339-0.069,0.368,0.17,0.403,0.405
				c-0.135,0-0.27,0-0.403,0C65.056,76.731,65.056,76.596,65.056,76.461z"/>
			<path fill-rule="evenodd" clip-rule="evenodd" fill="#17364E" d="M56.455,77.271c0.267-0.03,0.262,0.211,0.304,0.404
				c-0.135,0-0.271,0-0.405,0C56.432,77.584,56.462,77.446,56.455,77.271z"/>
			<path fill-rule="evenodd" clip-rule="evenodd" fill="#939FAB" d="M63.436,86.274c-0.109,0.167-0.902,0.167-1.01,0
				C62.762,86.274,63.099,86.274,63.436,86.274z"/>
			<path fill-rule="evenodd" clip-rule="evenodd" fill="#E4D6C7" d="M65.966,34.78c0.369-1.552,2.418-2.303,3.338-3.643
				c1.322,0.262,2.355,0.814,3.642,1.114c0.964,1.432,1.342,3.446,1.822,5.361c1.868-1.071,2.552-4.239,5.563-3.743
				c1.309,0.216,2.016,1.582,3.237,2.125c0.013,1.842,0.366,3.344,0.303,5.262c1.166-0.052,3.009-1.681,3.643-0.102
				c-0.189,0.035-0.465-0.506-0.506,0c-0.138-0.031-0.083-0.253-0.101-0.404c-0.604-0.054-0.492,0.517-0.608,0.707
				c-0.177,0.146-0.229,0.093-0.2-0.201c-0.243,0.263-0.254,0.757-0.507,1.011c0.176,0.051,0.17,0.227,0.405,0.606
				c-0.075,0.409-0.498,0.624-0.91,0.405c-0.081,0.102-0.065,0.253-0.304,0.405c0.094,0.513,0.44,0.772,0.605,1.213
				c-0.662,0.081-1.352,0.914-1.416,1.922c-0.819,0.496-1.655,0.975-2.327,1.619c0.779,1.167,2.95,2.786,4.249,1.416
				c-0.448-0.528-0.331-1.625-0.606-2.327c0.229-0.48,0.647-0.77,0.911-1.214c-0.011-0.528-0.468-0.612-0.404-1.214
				c0.476-0.147,0.598,0.05,1.012-0.102c0.58-1.096,0.513-2.761,0.91-3.642c1.47-0.121,0.911,2.563,2.023,2.731
				c-0.092,0.79-0.355,1.908-0.405,3.036c2.3,0.802,3.633,2.572,4.756,4.553c-1.146,1.349-1.877,3.114-2.227,5.261
				c-0.059-0.329,0.069-0.471,0.102-0.709c-1.897,1.034-4.277-0.141-3.845-2.428c0.506-0.851,1.344-1.524,1.214-2.63
				c-0.043-0.375-0.458-0.564-0.506-0.911c-0.092-0.686,0.329-0.805,0.506-1.416c-0.536,0.003-0.573,0.505-1.012,0.607
				c-0.592-0.217-0.743-0.875-1.315-1.113c-0.812,1.679-1.102,3.351-3.035,3.339c-1.255-0.01-3.092-1.1-2.73-3.237
				c0.114-0.682,0.969-1.101,1.314-2.024c0.479-1.272,0.531-2.443,0.709-4.147c-0.508-0.001-0.624,0.812-1.113,0.506
				c-0.149-0.053-0.255-0.15-0.405-0.203c-0.511-0.495,0.054-1.457-0.606-1.82c-0.868,0.919-2.004,1.571-1.922,3.439
				c0.357-0.172,0.574,0.104,0.809-0.102c0.071-0.082,0.157-0.276,0-0.303c0.091-0.212,0.57-0.036,0.606-0.304
				c0.164,0.029,0.176-0.096,0.305-0.101c0.081-0.054,0.164-0.105,0.304-0.101c-0.044,0.211,0.069,0.267,0.101,0.405
				c-0.023,0.394,0.217,0.524,0.303,0.809c-0.189,0.146-0.448,0.227-0.403,0.607C80.76,45.696,79.985,46,79.42,46.515
				c-0.67,1.116-1.896,1.68-2.63,2.731c-0.31,0.074-0.368-0.103-0.607-0.101c-0.343-1.346,1.086-1.729,1.316-2.833
				c0.161-0.278,0.377-0.499,0.506-0.81c-2.904,0.801-5.684-3.238-2.833-4.552c0.123-1.645,0.707-2.842,0.404-3.743
				c-0.276,0.089,0.198,0.449-0.201,0.202c-0.111,1.444-2.596,0.296-2.833-0.809c-1.292-0.679-1.287,0.883-2.024,1.417
				c-1.621,1.174-3.532,0.204-4.249-1.518c0.335-0.946,0.921-1.642,1.518-2.327c0.028-0.432-0.369-0.439-0.506-0.708
				C66.674,33.735,66.184,34.122,65.966,34.78z M71.327,32.656c-0.102,0.303,0.226,0.179,0.404,0.202c0-0.101,0-0.202,0-0.303
				C71.556,32.546,71.417,32.577,71.327,32.656z M79.927,34.78c-0.342,0.939-1.219,1.344-1.72,2.124
				c0.477,0.467,0.705,1.183,1.315,1.518c0.579-0.086,0.529-1.139,0.809-1.214c0.319-0.05,0.357,0.182,0.708,0.101
				c-0.107-0.378,0.252-0.288,0.203-0.607c-0.359-0.417-0.233-1.318-0.406-1.921C80.424,34.681,80.428,34.791,79.927,34.78z
				 M67.38,35.791c-0.253,1.179,1.22,2.216,2.531,1.417c-0.436-0.847,0.094-1.973-0.101-2.428
				C69.189,35.125,67.586,34.845,67.38,35.791z M76.79,40.951c-1.289-0.007-1.444,1.117-2.327,1.517
				c1.075,0.856,1.303,2.723,3.44,2.227c0.759-0.674,1.089-2.122,0.102-2.732c0.727-0.352,0.828-1.331,1.011-2.225
				c-0.172-0.768-1.374-0.348-1.923-0.506C77.031,39.887,77.09,40.377,76.79,40.951z M83.568,40.445
				c0.347,0.103,0.241-0.76,0.101-0.809C83.713,39.983,83.629,40.203,83.568,40.445z M78.207,46.212
				c-0.163,0.97,0.771,0.729,0.606-0.101C78.565,46.097,78.325,46.095,78.207,46.212z M91.966,50.056
				c-0.251-0.55-1.599-0.825-1.417,0.304c0.777,0.032,1.056,0.564,1.417,1.012C92.781,51.074,91.498,50.266,91.966,50.056z
				 M91.155,52.585c-0.377,0.108-0.287-0.251-0.606-0.203c-0.703,0.887-1.705,1.203-1.417,2.63c0.582,0.356,1.615,0.897,2.327,0.506
				c0.114-1.023-0.21-1.61-0.203-2.529c0.147-0.19,0.662-0.012,0.812-0.202c0.029-0.4-0.125-0.618-0.304-0.809
				c-0.312,0.369-0.583-0.152-0.811-0.202C90.82,52.247,91.29,52.115,91.155,52.585z"/>
			<path fill-rule="evenodd" clip-rule="evenodd" fill="#E4D6C7" d="M64.549,36.297c0.512-0.365,0.694-1.059,1.417-1.214
				c-0.298,0.243-0.368,0.713-0.507,1.113C65.052,36.126,64.882,36.293,64.549,36.297z"/>
			<path fill-rule="evenodd" clip-rule="evenodd" fill="#939FAB" d="M82.152,42.772c0.489,0.306,0.605-0.507,1.113-0.506
				c-0.178,1.704-0.23,2.875-0.709,4.147c-0.346,0.923-1.2,1.343-1.314,2.024c-0.361,2.138,1.476,3.228,2.73,3.237
				c1.934,0.012,2.224-1.66,3.035-3.339c0.572,0.238,0.724,0.896,1.315,1.113c0.438-0.102,0.476-0.604,1.012-0.607
				c-0.177,0.611-0.598,0.73-0.506,1.416c0.048,0.347,0.463,0.536,0.506,0.911c0.13,1.106-0.708,1.779-1.214,2.63
				c-0.433,2.287,1.947,3.462,3.845,2.428c-0.032,0.238-0.16,0.38-0.102,0.709c-0.45,1.011-0.243,2.165-0.709,3.035
				c-0.033,0-0.066,0-0.101,0c0.014-0.892-0.194-1.592-0.304-2.429c-1.934-0.392-3.519-1.134-3.237-3.743
				c0.621-0.885,1.142-2.089,0.607-3.339c-0.329,0.326-0.628-0.396-0.809-0.809c-0.395,0.316-0.72,0.696-0.606,1.518
				c-0.778,0.055-1.069,0.8-1.721,1.011c-1.903,0.617-3.551-0.605-4.352-2.226c0-0.067,0-0.135,0-0.203
				c0.384-0.66-0.264-2.516,0.81-2.731c0.017-0.22-0.358-0.046-0.505-0.101c0.691-0.185,0.588-1.167,1.113-1.518
				c-0.328-0.075-0.351-0.822,0-0.607c-0.087-0.147-0.152-0.321-0.406-0.303c-0.086-0.285-0.326-0.415-0.303-0.809
				c0.401-0.005,0.587-0.223,0.912-0.304c-0.044-0.212,0.068-0.268,0.1-0.405C82.264,42.93,82.173,42.885,82.152,42.772z
				 M82.052,44.594c0.151-0.287,0.408-0.468,0.403-0.911c-0.167,0-0.337,0-0.505,0C82.082,44.112,81.642,44.484,82.052,44.594z"/>
			<path fill-rule="evenodd" clip-rule="evenodd" fill="#44B4E4" d="M80.634,43.48c-0.036,0.268-0.516,0.092-0.606,0.304
				c0.157,0.027,0.071,0.222,0,0.303c-0.282-0.096-0.095-0.728,0.102-0.91C80.387,43.188,80.648,43.195,80.634,43.48z"/>
			<path fill-rule="evenodd" clip-rule="evenodd" fill="#939FAB" d="M81.242,45.099c0.243,0.553-0.577,0.561-0.203,0.911
				c-0.423,0.521-1.377-0.251-1.416,0.911c-0.178-0.024-0.232-0.175-0.203-0.405C79.985,46,80.76,45.696,81.242,45.099z"/>
			<path fill-rule="evenodd" clip-rule="evenodd" fill="#939FAB" d="M65.966,34.78c0.218-0.659,0.708-1.045,1.314-1.316
				c0.137,0.269,0.534,0.276,0.506,0.708c-0.597,0.685-1.183,1.381-1.518,2.327c0.717,1.722,2.628,2.692,4.249,1.518
				c0.737-0.534,0.732-2.095,2.024-1.417c0.237,1.105,2.722,2.253,2.833,0.809c0.399,0.247-0.075-0.113,0.201-0.202
				c0.303,0.901-0.281,2.099-0.404,3.743c-2.851,1.314-0.071,5.353,2.833,4.552c-0.129,0.311-0.345,0.532-0.506,0.81
				c-0.351,0.261-1.064-0.168-1.113,0.202c-0.21-0.546-0.853-1.037-1.416-0.91c-1.297-0.482-2.095-2.842-1.214-4.249
				c-0.104-0.539-0.407-0.875-0.405-1.517c0.167,0.21,0.493,0.473,0.708,0.101c0.092-0.515-0.495-0.042-0.404-0.708
				c0.325-0.083,0.21-0.086,0.404,0.101c0.752-1.028-1.468-1.421-2.226-1.922c-0.522,0.489-0.829,1.194-1.417,1.619
				c-0.685,0.056-1.251,0.232-1.82,0.404c-1.604-0.352-2.632-1.28-3.137-2.731c-3.559-0.031-6.489,0.401-9.61,1.316
				c2.019-1.455,5.866-1.081,8.7-1.72c0.333-0.004,0.503-0.171,0.91-0.101c0.139-0.4,0.209-0.87,0.507-1.113
				c0.243,0.042,0.22-0.185,0.505-0.102C66.385,34.832,66.145,34.836,65.966,34.78z"/>
			<path fill-rule="evenodd" clip-rule="evenodd" d="M54.734,38.726c0.165-0.028,0.175,0.095,0.304,0.102
				c0.05,0.318-0.31,0.229-0.201,0.606c0.355,0.117,0.924-0.422,1.214-0.708c0.124,0.18,0.065,0.443,0.102,0.911
				c0.452-0.082,0.304-0.607,0.404-0.809c0.286-0.018,0.694,0.087,0.707-0.203c-0.194-0.209-0.581-0.228-0.605-0.607
				c0.614,0.16,1.433-0.333,1.518,0.203c0.352-0.087,0.594-0.283,0.707-0.608c0.287-0.016,0.255,0.286,0.405,0.405
				c0.15-0.086,0.146-0.326,0.203-0.506c0.599-0.106,1.691-0.062,2.225-0.101c0.215,0.396-0.271,0.482-0.303,0.911
				c-0.133-0.036-0.16-0.178-0.304-0.202c-0.27-0.033,0.095,0.566-0.304,0.404c0.222,0.183,1.095,0.153,1.011-0.303
				c0.342,0.198,0.279,0.801,0.912,0.708c-0.179-0.138-0.408-0.49-0.202-0.708c0.148,0.363,0.216,0.18,0.606,0.303
				c-0.037,0.769,0.474,0.372,0.707,0.809c0.573-0.371,1.293-0.597,1.721-1.112c0.246,0.372-0.526,1.308,0.304,1.416
				c-0.165,0.273-0.19,0.686-0.506,0.809c0.101,0.271,0.682,0.06,0.506,0.606c0.266,0.031,0.079-0.392,0.404-0.302
				c-0.216,0.683,0.097,1.014-0.303,1.718c-0.612-0.233,0.035-1.229-0.91-1.212c-0.042-0.245,0.184-0.221,0.101-0.506
				c-0.081,0.053-0.164,0.104-0.306,0.101c-0.227,0.614-0.422,0.951-0.604,1.417c-1.161-0.223-1.147,0.575-1.925,0.506
				c0.048,0.561,0.486,0.729,0.306,1.517c-0.237-0.032-0.38-0.159-0.709-0.101c-0.057-0.18-0.052-0.42-0.202-0.506
				c-0.363,0.447-0.136,0.837-0.202,1.213c-0.353-0.329-0.589-0.605-0.303-1.113c-0.372-0.365-0.755,0.118-1.012,0.202
				c-0.388-0.692-0.704,0.148-1.418,0c-0.083-0.286,0.144-0.262,0.102-0.506c-0.788-0.026-0.043,0.852,0,1.214
				c0.112,0.323-0.597,0.334-0.201,0.607c-0.243,0.137-1.065-0.009-0.91-0.607c0.286,0.017,0.421,0.186,0.708,0.202
				c0.117-0.016,0.085-0.184,0.102-0.303c-0.31-0.131-0.668-0.21-0.91-0.405c-0.58,0.634,0.407,1.305,0.505,1.922
				c0.409-0.004,0.712,0.097,0.707,0.506c-0.557,0.065-1.049-0.486-1.719-0.607c-0.047,0.261-0.235,0.316-0.607,0.101
				c-0.206,0.097-0.219,0.389-0.203,0.708c-0.017,0.219,0.359,0.046,0.507,0.102c0.172,0.112-0.554,0.182-0.81,0.202
				c-0.03-0.206-0.202-0.271-0.303-0.405c-0.663,0.241-0.842,0.641-1.417,1.113c-0.118,0.825,0.879,0.537,0.707,1.416
				c-0.499-0.16-0.298-0.425-0.707-0.708c-0.66,0.317-0.875-0.382-1.416-0.101c0.178,0.532,0.506,0.208,0.809,0.303
				c-0.064,0.402,0.13,0.545,0.303,0.708c0.116,0.42-0.211,0.394-0.201,0.708c-0.201,0-0.404,0-0.606,0
				c-0.358,0.599-0.099,1.232-0.812,1.518c0.326,0.044,0.312,0.91-0.1,1.112c-0.304,0.102-0.179-0.225-0.203-0.405
				c-0.305,0.065-0.583,0.158-0.607,0.505c0.044,0.709,0.549,0.005,0.709,0.406c-0.013,0.223-0.429,0.042-0.606,0.101
				c0.018,0.678-0.256,1.001-0.505,1.618c0.441-0.072,0.688,0.053,0.809,0.304c-0.165,0.307-0.697,0.247-1.012,0.404
				c0.619,0.303-0.164,1.559,0.809,1.417c-0.145,0.792,0.009,1.275-0.101,2.125c-0.239,0.148-0.188,0.213-0.505,0.101
				c0.547,0.498,0.696,1.394,1.01,2.125c0.099,0.367-0.455,0.084-0.404,0.404c0.13,0.174,0.404,0.204,0.506,0.405
				c0.01,0.314-0.123,0.484-0.202,0.708c0.017,0.119,0.185,0.085,0.304,0.102c0.149,0.828,0.149,1.806,0.709,2.225
				c-0.166,0.45-0.253,0.724,0.202,0.91c0.017,0.219-0.359,0.046-0.507,0.102c0.356,0.183,0.649,0.429,1.012,0.606
				c0.111,0.98,0.385,1.173,0.911,1.72c0.062,0.364-0.31,0.298-0.304,0.606c0.385-0.095,0.593,0.996,1.215,0.912
				c-0.026,0.831,0.368,1.497,1.415,1.517c0.101,0.338-0.14,0.332-0.404,0.304c0,0.135,0,0.27,0,0.405
				c0.497,0.481,1.073,0.882,1.315,1.619c0.412,0.042,0.639-0.104,0.607-0.506c0.211,0.195,0,0.809,0.403,0.81
				c-0.089,0.213-0.307,0.299-0.302,0.607c0.319-0.014,0.525,0.238,0.606,0.708c0.346,0.042,0.304-0.303,0.505-0.404
				c0.026-0.396-0.365-0.376-0.303-0.81c0.168,0,0.337,0,0.505,0c-0.078,0.382,0.125,0.484,0.101,0.81
				c0.592,0.084,1.052-0.156,1.418,0c0.001,1.145,1.713,0.579,1.821,1.618c0.347-0.185,0.618-0.032,0.81,0.202
				c0.259-0.109,0.485-0.255,0.605-0.506c-0.09-0.313-0.707-0.101-0.91-0.302c0.043-0.354,1.203-0.896,1.316-0.203
				c0.283,0.015,0.29-0.248,0.303-0.506c0.406-0.031,0.979,0.49,1.214,0c0.19,0.114,0.214,0.393,0.404,0.506
				c0.364-0.053,1.081-0.417,0.911,0.101c0.128-0.142,0.534-0.006,0.404-0.405c0.207,0.03,0.198,0.274,0.404,0.304
				c0.313-0.374,0.812-0.526,1.215-0.101c-0.062-0.471,0.139-0.611,0-0.912c0.303,0.068,0.152,0.589,0.404,0.708
				c0.534-0.075,1.483-0.038,1.112-0.708c0.576,0.091,1.709,0.188,2.328,0c0.03-0.266-0.393-0.079-0.305-0.405
				c0.049-0.59,1.36-0.57,1.316,0.102c0.603,0.044,0.905-0.235,1.618-0.304c0.008,0.16-0.049,0.386,0.101,0.405
				c0.294-0.416-0.444-0.675-0.101-1.213c-0.375,0.129-0.162,0.544-0.708,0.303c-0.224,0.013-0.043,0.429-0.102,0.607
				c-0.474-0.201-0.44-0.454-0.506-0.91c0.557,0.151,0.507-0.302,0.809-0.406c0.326-0.089,0.139,0.334,0.405,0.304
				c0.297-0.562,0.219-0.663,0.102-1.314c0.956-0.021,1.354,0.274,2.124,0.606c-0.219-0.32-0.374-0.705-0.809-0.809
				c0.062-0.243-0.128-0.734,0.1-0.809c0.386-0.082,0.131,0.478,0.204,0.708c0.055-0.451,0.978-0.033,0.809-0.708
				c0.27,0,0.539,0,0.81,0c-0.283-0.569-0.644-0.052-1.113,0c-0.493-0.531-0.056-0.969,0.606-0.607
				c0.304-0.1,0.533-0.276,0.608-0.607c-0.247-0.215-0.432,0.241-0.911,0.102c0.172-0.199,0.47-0.271,0.81-0.303
				c-0.32-0.285-0.295-1.518-0.404-1.923c0.29,0.081,0.536,0.205,0.809,0.304c0.312,0.075,0.194-0.277,0.506-0.203
				c0.062-0.604-0.314-0.764-0.606-1.012c0.19-0.356,0.963-1.261,0.202-1.619c-0.049-0.317,0.273-0.268,0.304-0.506
				c-0.711-0.203-0.417-1.649,0.101-1.821c-0.117-0.387-0.563-0.447-0.708-0.809c-0.062-0.398,0.149-0.525,0.304-0.708
				c0.001-0.372-0.354-0.388-0.506-0.607c0.131-0.811,0.053-1.695,0.102-2.529c-0.118,0.016-0.086,0.184-0.102,0.303
				c-0.254-0.373-0.147-1.005-0.203-1.214c0.28-0.276,0.096,0.148,0.305,0.203c0.428-0.583-0.938-0.916-0.202-1.518
				c0.206,0.194,0.202,0.439,0.101,0.709c0.823,0.542,1.782-0.049,1.619-1.114c0.401,0.118,0.249,0.416,0.403,0.911
				c-0.135,0-0.269,0-0.403,0c0,0.203,0,0.405,0,0.607c0.616,0.133,0.632-0.488,0.708-0.607c0.186,0.496,1.304,0.993,1.618,0.101
				c0.017-0.228-0.566-0.674-0.606-0.203c-0.706-0.019,0.482-1.069-0.507-1.012c0.15-0.376,0.774,0.265,1.013-0.303
				c0.601,0.207,0.807,0.811,0.809,1.619c0.235,0.032,0.39-0.016,0.507-0.102c-0.011-0.287-0.442-0.669,0-0.81
				c-0.26-0.349-0.815-0.4-0.912-0.911c0.279-0.653,1.157-0.122,1.216-0.91c0.47,0.166,0.564,0.795,0.606,1.113
				c0.621-0.146,1.332-0.146,1.72,0.202c-0.029,0.206-0.273,0.198-0.304,0.404c0.438,0.136,0.368,0.778,0.507,1.214
				c0.134-0.101,0.198-0.273,0.404-0.304c0.685,0.19,0.478,0.765,0.505,1.214c0.385,0.047,0.633-0.043,0.708-0.303
				c0.104,0.402,0.695,0.317,0.709,0.809c-0.233-0.171-0.547-0.262-1.012-0.202c0.082,1.063,0.799,1.494,1.012,2.428
				c-0.351-0.083-0.428,0.188-0.607,0c-0.226,0.015,0.132,0.255,0,0.505c0.305,0.102,0.179-0.226,0.203-0.404
				c0.391-0.088,0.359,0.247,0.606,0.304c0.056-0.404,0.056-0.305,0-0.708c0.086,0.184,0.261,0.279,0.303,0.506
				c0.181-0.091,0.129-0.411,0.506-0.304c0,0.034,0,0.067,0,0.102c-0.354,0.014-0.288,0.453-0.404,0.708
				c0.173,0.064,0.775-0.525,0.914-0.426c-0.288,2.207-0.058,2.896-0.298,5.151c-0.508,0.287-0.876,3.09-1.188,3.469
				c-0.752,3.265-2.478,5.151-4.757,8.521c-0.998,0.447-2.702,2.375-3.675,3.013c-1.107,0.725-1.498,1.807-2.963,2.337
				c-4.658,1.685-3.064,2.101-7.829,3.071c-0.337,0-6.3,0.199-6.638,0.199c-1.363-0.301-4.571-0.773-5.944-1.189
				c-0.869-0.264-5.421-2.092-6.243-2.775c-3.134-2.601-3.468-2.675-6.341-5.747c0.545,0.124-1.517-1.98-1.783-2.774
				c-1.033-3.078-2.267-5.566-3.271-8.522c-0.323-0.951-0.438-3.708-0.298-4.755c0.303-2.225,0.429-5.006,0.992-6.639
				c0.654-1.898,1.92-4.479,2.773-6.242c0.46-0.949,1.574-1.818,2.237-2.779c1.02-1.482,3.146-3.265,3.212-3.265
				c0.093,0.178,1.274-0.619,1.34-1.085c0.957-0.526,1.838-1.131,2.834-1.619c-0.202,0.233,0.025,0.113,0.1,0.304
				c0.15-0.086,0.218-0.255,0.203-0.506C54.182,38.98,54.378,38.772,54.734,38.726z M64.954,40.142
				c0.241-0.04-0.056,0.461,0.305,0.304c-0.082-0.518,0.141-0.735,0.1-1.214c-0.149-0.052-0.255-0.149-0.404-0.202
				c-0.106,0.285-0.491,0.65-0.305,0.911c-0.351,0.245-0.875,0.244-1.214,0c-0.055,0.147,0.118,0.523-0.1,0.506
				c-0.153-0.017-0.374,0.036-0.405-0.101c0.144-0.135,0.144-0.574,0-0.708c-0.583,0.14-0.323,0.586-0.609,0.91
				c-0.295-0.073-0.359-0.38-0.505-0.606c-0.07,0.609-0.089,1.073,0.405,1.316c0.09-0.366,0.719-0.174,0.911-0.405
				c-0.092,0.394-0.538,1.061,0,1.214c0.011-0.26,0.057-0.482,0.203-0.607c0.261,0.258,0.271,0.541,0.504,0.607
				c0.068,0,0.136,0,0.204,0c0.07-0.401-0.177-1.12,0.202-1.214c0.163,0.16,0.318,0.039,0.505,0
				C64.741,40.537,64.797,40.289,64.954,40.142z M90.447,62.095c0.027,0.296-0.228,0.31-0.201,0.607
				c0.14-0.005,0.222,0.047,0.303,0.101C90.725,62.629,90.661,62.178,90.447,62.095z M59.793,38.827
				c0.509,0.191,0.396-0.504,0.71-0.203c-0.052-0.252-0.193-0.416-0.304-0.607C60.293,38.517,59.579,38.207,59.793,38.827z
				 M57.872,39.332c0.382,0.012,0.543-0.198,0.607-0.505c-0.593,0.283-0.531-0.61-0.809-0.304
				C57.84,38.776,58.081,38.96,57.872,39.332z M58.581,40.344c-0.084-0.254,0.196-0.871-0.203-0.81
				C58.371,39.878,58.347,40.241,58.581,40.344z M60.604,40.75c0.137,0.031,0.193,0.144,0.404,0.101c0-0.135,0-0.27,0-0.405
				c0.159-0.01,0.351,0.014,0.305-0.202c-0.02-0.15-0.246-0.093-0.406-0.102C61.044,40.583,60.516,40.356,60.604,40.75z
				 M59.39,41.558c0.064,0.24,0.136,0.471,0.403,0.506c0.105-0.271,0.829-0.642,1.013-0.203c-0.087,0.178-0.339,0.314,0,0.405
				c0.083-0.255,0.533-0.142,0.708-0.304c-0.17-0.524-0.379-0.613-1.011-0.506c-0.141-0.129-0.062-0.477-0.203-0.606
				c-0.101,0-0.201,0-0.305,0C60.137,41.297,60.029,41.646,59.39,41.558z M59.188,41.76c0.202-0.253,0.083-0.832-0.305-0.809
				C58.849,41.357,58.885,41.692,59.188,41.76z M60.199,43.379c0.372-0.065,0.531-0.346,0.606-0.708
				c-0.159-0.009-0.079-0.258-0.303-0.204C60.177,42.678,60.076,42.955,60.199,43.379z M55.748,45.301c0.202,0,0.404,0,0.605,0
				c-0.052-0.619,0.287-1.073-0.303-1.214C56.068,44.611,55.843,44.891,55.748,45.301z M55.546,46.111c0,0.101,0,0.203,0,0.303
				c0.318,0.048,0.414-0.125,0.505-0.303C55.739,46.04,55.855,46.04,55.546,46.111z M52.915,50.359
				c0.145-0.452-0.184-0.833,0.202-1.113c-0.144-0.024-0.171-0.166-0.303-0.202C52.777,49.387,52.312,50.307,52.915,50.359z
				 M87.008,56.936c0-0.068,0-0.135,0-0.203c0.063-0.005,0.12-0.015,0.102-0.101c-0.124-0.012-0.239-0.031-0.202-0.202
				c-0.402,0.074-0.407,0.074-0.809,0C86.199,56.802,86.706,56.767,87.008,56.936z M50.79,56.632
				c-0.21,0.06-0.664-0.125-0.708,0.101C50.33,56.636,50.709,57.214,50.79,56.632z M80.836,58.149
				c0.135-0.169,0.27-0.338,0.203-0.708c-0.101,0-0.203,0-0.303,0C80.585,57.736,80.452,58.04,80.836,58.149z M81.343,58.453
				c-0.236-0.008-0.569-0.431-0.81-0.101c0.245,0.092,0.269,0.407,0.303,0.708c0.646,0.138,0.614-0.398,1.114-0.405
				c0.408,0.031,0.495,0.381,0.707,0.607c0.222-0.117,0.654-0.021,0.709-0.304c-0.206-0.617-0.949-0.071-1.314-0.505
				c0.154-0.321,0.035-0.445,0-0.809c-0.375,0.072-0.436-0.173-0.81-0.102C81.171,57.891,81.702,58.152,81.343,58.453z
				 M87.514,59.565c0.375,0.072,0.447-0.159,0.406-0.505c-0.102,0-0.203,0-0.304,0C87.657,59.304,87.431,59.28,87.514,59.565z
				 M81.747,60.679c0.147-0.056,0.523,0.118,0.508-0.102c-0.415,0.11,0.014-0.621-0.508-0.404
				C81.747,60.341,81.747,60.51,81.747,60.679z M89.335,63.917c0.357,0.055,0.249-0.358,0.607-0.304
				c0.015-0.251,0.019-0.491-0.202-0.505C89.557,63.516,89.6,63.555,89.335,63.917z M81.242,63.917
				c-0.002-0.269,0.055-0.597-0.203-0.607C80.894,63.622,81.056,63.702,81.242,63.917z M51.095,71.201
				c-0.119-0.018-0.111-0.161-0.102-0.304c-0.102,0-0.203,0-0.304,0C50.562,71.203,51.025,71.421,51.095,71.201z M52.814,74.742
				c-0.167-0.172-0.424-0.252-0.407-0.607c-0.345-0.077-0.128,0.411-0.504,0.303c0.028,0.409,0.494,0.384,0.504,0.81
				c-0.665-0.037-0.068,0.925-0.303,1.113c-0.524-0.262-1.048-0.099-1.415,0.201c-0.159,1.509,0.814,1.883,1.011,3.036
				c1.021,0.058,1.67,0.489,2.227,1.011c0.343-0.027,0.347-0.396,0.708-0.404c0.157,0.146,0.352,0.255,0.403,0.506
				c0.309-0.063,0.873,0.129,1.013-0.102c-0.563-0.077-0.365-0.917-0.606-1.315c0.436-0.521,1.341,0.054,1.416-0.809
				c-0.103-0.201-0.376-0.231-0.507-0.404c0.199-0.688,1.028,0.016,1.216-0.102c0.188-0.458-0.364-0.177-0.405-0.405
				c0.178-0.092,0.167-0.372,0.405-0.404c0.084,0.117,0.133,0.271,0.102,0.505c0.356,0.021,0.197-0.475,0.605-0.404
				c0.119,0.15,0.089,0.452,0.405,0.404c0.152-0.556,0.676-0.741,1.313-0.81c-0.048-0.318-0.589-0.538-0.707-0.203
				c-0.197-0.207-0.562-0.247-0.606-0.606c0.199,0.03,0.2-0.136,0.303-0.203c0.051-0.318-0.311-0.229-0.203-0.606
				c-0.6-0.108-1.049-0.369-1.416-0.708c0.003-0.133,0.178-0.092,0.204-0.203c-0.214-0.179-0.3-0.228-0.608-0.102
				c0.086-0.659-0.496-0.649-0.506-1.213c-1.251,0.188-1.727-0.532-2.731-0.303c-0.229-0.402-0.406-0.587-0.404-1.012
				c-0.136,0-0.271,0-0.404,0c0.077,0.483-0.158,0.652-0.101,1.113c0.147,0.056,0.521-0.118,0.505,0.102
				c-0.384,0.305-0.064,0.271,0,0.506c-0.234,0.032-0.389-0.016-0.505-0.102c-0.489,0.632,0.658,0.744,0.505,1.012
				C52.92,74.07,53.042,74.58,52.814,74.742z M50.892,72.516c0.23,0.048,0.517,0.201,0.708,0c0.023-0.191-0.114-0.223-0.103-0.404
				C51.26,72.209,50.855,72.144,50.892,72.516z M77.499,73.223c-0.17,0.533,0.923,0.75,0.91,0.203
				C78.227,73.09,77.876,73.147,77.499,73.223z M50.892,74.944c0.134,0,0.271,0,0.404,0c-0.056-0.147,0.118-0.523-0.102-0.506
				C51.164,74.676,50.843,74.626,50.892,74.944z M73.047,76.158c0.085-0.117,0.134-0.271,0.102-0.506c-0.136,0-0.271,0-0.405,0
				C72.664,76.002,72.838,76.097,73.047,76.158z M66.876,76.259c0.051,0.319,0.298,0.444,0.302,0.808
				c0.503-0.216,0.336-0.078,0.812,0.103c0.001-0.27,0.28-0.258,0.403-0.405c-0.172-0.13-0.397-0.209-0.403-0.505
				c-0.379-0.107-0.161,0.379-0.506,0.302C67.583,76.146,67.067,76.079,66.876,76.259z M70.013,76.562
				c0.133,0.131,0.373,0.131,0.505,0C70.63,75.977,69.964,76.14,70.013,76.562z M65.056,76.866c0.134,0,0.269,0,0.403,0
				c-0.035-0.235-0.064-0.474-0.403-0.405C65.056,76.596,65.056,76.731,65.056,76.866z"/>
			<path fill-rule="evenodd" clip-rule="evenodd" fill="#205997" d="M74.97,45.605c0.176,0.278,0.302,1.104-0.202,1.214
				c0.268,0.248-0.196,0.441,0,1.214c0.493,0.349,0.712,0.974,1.011,1.518c1.059,0.288,2.631,0.929,3.237-0.202
				c0.067,0,0.136,0,0.203,0c0.436,0.065,0.566-0.175,0.809-0.304c0.205-0.064,0.066-0.473,0.304-0.506
				c0.619,0.077,0.1,0.894,0.303,1.214c0,0.067,0,0.136,0,0.203c0.801,1.62,2.448,2.843,4.352,2.226
				c0.651-0.211,0.942-0.957,1.721-1.011c-0.113-0.822,0.212-1.202,0.606-1.518c0.181,0.413,0.479,1.135,0.809,0.809
				c0.534,1.25,0.014,2.454-0.607,3.339c-0.281,2.608,1.304,3.351,3.237,3.743c0.109,0.836,0.317,1.537,0.304,2.429
				c0.073,0.309-0.104,0.369-0.102,0.607c-0.377-0.107-0.325,0.213-0.506,0.304c-0.042-0.227-0.217-0.322-0.303-0.506
				c0.056,0.403,0.056,0.305,0,0.708c-0.247-0.057-0.216-0.392-0.606-0.304c-0.024,0.179,0.102,0.506-0.203,0.404
				c0.132-0.25-0.226-0.491,0-0.505c0.18,0.188,0.257-0.083,0.607,0c-0.213-0.934-0.93-1.365-1.012-2.428
				c0.465-0.06,0.778,0.031,1.012,0.202c-0.014-0.492-0.604-0.407-0.709-0.809c-0.075,0.26-0.323,0.351-0.708,0.303
				c-0.027-0.449,0.18-1.024-0.505-1.214c-0.206,0.03-0.271,0.203-0.404,0.304c-0.139-0.437-0.069-1.079-0.507-1.214
				c0.03-0.207,0.274-0.198,0.304-0.404c-0.388-0.348-1.099-0.348-1.72-0.202c-0.042-0.317-0.137-0.947-0.606-1.113
				c-0.059,0.788-0.937,0.256-1.216,0.91c0.097,0.511,0.652,0.562,0.912,0.911c-0.442,0.14-0.011,0.523,0,0.81
				c-0.117,0.085-0.271,0.133-0.507,0.102c-0.002-0.808-0.208-1.412-0.809-1.619c-0.238,0.567-0.862-0.073-1.013,0.303
				c0.989-0.057-0.199,0.993,0.507,1.012c0.04-0.471,0.623-0.025,0.606,0.203c-0.314,0.892-1.433,0.395-1.618-0.101
				c-0.076,0.119-0.092,0.74-0.708,0.607c0-0.202,0-0.404,0-0.607c0.135,0,0.269,0,0.403,0c-0.154-0.495-0.002-0.793-0.403-0.911
				c0.163,1.064-0.796,1.655-1.619,1.114c0.102-0.27,0.105-0.515-0.101-0.709c-0.735,0.603,0.63,0.935,0.202,1.518
				c-0.209-0.054-0.024-0.479-0.305-0.203c0.056,0.208-0.051,0.841,0.203,1.214c0.016-0.119-0.017-0.288,0.102-0.303
				c-0.049,0.834,0.029,1.718-0.102,2.529c0.151,0.219,0.507,0.235,0.506,0.607c-0.154,0.183-0.366,0.31-0.304,0.708
				c0.145,0.362,0.591,0.422,0.708,0.809c-0.518,0.172-0.812,1.618-0.101,1.821c-0.03,0.238-0.353,0.188-0.304,0.506
				c0.761,0.357-0.012,1.263-0.202,1.619c0.292,0.248,0.669,0.408,0.606,1.012c-0.312-0.074-0.194,0.278-0.506,0.203
				c-0.272-0.099-0.519-0.223-0.809-0.304c0.109,0.405,0.084,1.638,0.404,1.923c-0.34,0.031-0.638,0.104-0.81,0.303
				c0.479,0.14,0.664-0.316,0.911-0.102c-0.075,0.331-0.305,0.507-0.608,0.607c-0.662-0.362-1.1,0.076-0.606,0.607
				c0.47-0.052,0.83-0.569,1.113,0c-0.271,0-0.54,0-0.81,0c0.169,0.675-0.754,0.257-0.809,0.708
				c-0.073-0.229,0.182-0.789-0.204-0.708c-0.228,0.075-0.038,0.566-0.1,0.809c0.435,0.104,0.59,0.489,0.809,0.809
				c-0.771-0.333-1.168-0.628-2.124-0.606c0.117,0.651,0.195,0.752-0.102,1.314c-0.267,0.031-0.079-0.393-0.405-0.304
				c-0.302,0.104-0.252,0.557-0.809,0.406c0.065,0.456,0.032,0.709,0.506,0.91c0.059-0.178-0.122-0.594,0.102-0.607
				c0.546,0.241,0.333-0.174,0.708-0.303c-0.344,0.538,0.395,0.798,0.101,1.213c-0.149-0.019-0.093-0.245-0.101-0.405
				c-0.713,0.069-1.016,0.348-1.618,0.304c0.044-0.672-1.268-0.692-1.316-0.102c-0.088,0.326,0.335,0.139,0.305,0.405
				c-0.619,0.188-1.752,0.091-2.328,0c0.371,0.671-0.578,0.633-1.112,0.708c-0.252-0.119-0.102-0.64-0.404-0.708
				c0.139,0.301-0.062,0.44,0,0.912c-0.402-0.426-0.901-0.273-1.215,0.101c-0.206-0.03-0.197-0.273-0.404-0.304
				c0.13,0.399-0.276,0.263-0.404,0.405c0.17-0.519-0.547-0.154-0.911-0.101c-0.19-0.114-0.214-0.393-0.404-0.506
				c-0.234,0.49-0.808-0.031-1.214,0c-0.013,0.259-0.02,0.521-0.303,0.506c-0.113-0.693-1.273-0.152-1.316,0.203
				c0.203,0.202,0.82-0.011,0.91,0.302c-0.12,0.251-0.347,0.397-0.605,0.506c-0.191-0.233-0.463-0.386-0.81-0.202
				c-0.108-1.039-1.82-0.474-1.821-1.618c-0.366-0.156-0.826,0.084-1.418,0c0.024-0.326-0.179-0.428-0.101-0.81
				c-0.168,0-0.337,0-0.505,0c-0.062,0.434,0.329,0.414,0.303,0.81c-0.201,0.102-0.159,0.447-0.505,0.404
				c-0.081-0.47-0.287-0.722-0.606-0.708c-0.005-0.308,0.213-0.394,0.302-0.607c-0.403,0-0.192-0.615-0.403-0.81
				c0.031,0.402-0.195,0.548-0.607,0.506c-0.242-0.737-0.818-1.138-1.315-1.619c0-0.135,0-0.27,0-0.405
				c0.265,0.028,0.505,0.034,0.404-0.304c-1.047-0.02-1.441-0.686-1.415-1.517c-0.622,0.084-0.83-1.007-1.215-0.912
				c-0.006-0.309,0.365-0.243,0.304-0.606c-0.526-0.547-0.8-0.74-0.911-1.72c-0.362-0.177-0.655-0.423-1.012-0.606
				c0.147-0.056,0.523,0.117,0.507-0.102c-0.455-0.187-0.368-0.46-0.202-0.91c-0.56-0.419-0.56-1.397-0.709-2.225
				c-0.119-0.017-0.287,0.017-0.304-0.102c0.079-0.224,0.212-0.394,0.202-0.708c-0.102-0.201-0.376-0.231-0.506-0.405
				c-0.051-0.32,0.503-0.037,0.404-0.404c-0.313-0.731-0.463-1.627-1.01-2.125c0.316,0.112,0.266,0.047,0.505-0.101
				c0.109-0.85-0.044-1.333,0.101-2.125c-0.973,0.142-0.189-1.114-0.809-1.417c0.314-0.157,0.847-0.097,1.012-0.404
				c-0.121-0.25-0.367-0.375-0.809-0.304c0.249-0.617,0.522-0.94,0.505-1.618c0.178-0.059,0.594,0.122,0.606-0.101
				c-0.16-0.4-0.665,0.303-0.709-0.406c0.024-0.347,0.303-0.44,0.607-0.505c0.024,0.18-0.101,0.507,0.203,0.405
				c0.411-0.202,0.426-1.068,0.1-1.112c0.713-0.286,0.453-0.919,0.812-1.518c0.202,0,0.405,0,0.606,0
				c-0.01-0.314,0.317-0.288,0.201-0.708c-0.173-0.163-0.367-0.306-0.303-0.708c-0.303-0.095-0.631,0.229-0.809-0.303
				c0.541-0.282,0.756,0.417,1.416,0.101c0.409,0.283,0.208,0.548,0.707,0.708c0.172-0.879-0.825-0.591-0.707-1.416
				c0.575-0.473,0.754-0.872,1.417-1.113c0.101,0.135,0.272,0.199,0.303,0.405c0.256-0.02,0.981-0.09,0.81-0.202
				c-0.147-0.056-0.523,0.118-0.507-0.102c-0.016-0.319-0.003-0.611,0.203-0.708c0.372,0.215,0.561,0.16,0.607-0.101
				c0.67,0.121,1.162,0.672,1.719,0.607c0.005-0.409-0.298-0.51-0.707-0.506c-0.098-0.617-1.085-1.288-0.505-1.922
				c0.242,0.194,0.601,0.273,0.91,0.405c-0.017,0.119,0.016,0.287-0.102,0.303c-0.287-0.017-0.422-0.186-0.708-0.202
				c-0.155,0.598,0.667,0.744,0.91,0.607c-0.396-0.272,0.313-0.284,0.201-0.607c-0.043-0.363-0.788-1.24,0-1.214
				c0.042,0.244-0.185,0.22-0.102,0.506c0.714,0.148,1.03-0.692,1.418,0c0.257-0.084,0.64-0.567,1.012-0.202
				c-0.286,0.508-0.05,0.784,0.303,1.113c0.066-0.376-0.161-0.766,0.202-1.213c0.15,0.085,0.146,0.326,0.202,0.506
				c0.329-0.059,0.472,0.068,0.709,0.101c0.181-0.788-0.258-0.956-0.306-1.517c0.777,0.069,0.764-0.729,1.925-0.506
				c0.183-0.465,0.378-0.802,0.604-1.417c0.142,0.004,0.225-0.048,0.306-0.101c0.083,0.285-0.143,0.261-0.101,0.506
				c0.945-0.016,0.298,0.979,0.91,1.212c0.399-0.705,0.087-1.036,0.303-1.718c-0.325-0.09-0.139,0.333-0.404,0.302
				c0.176-0.546-0.405-0.336-0.506-0.606c0.315-0.123,0.341-0.536,0.506-0.809c-0.83-0.108-0.058-1.044-0.304-1.416
				c-0.428,0.515-1.147,0.741-1.721,1.112c-0.233-0.437-0.744-0.041-0.707-0.809c-0.391-0.123-0.458,0.06-0.606-0.303
				c-0.206,0.217,0.023,0.57,0.202,0.708c-0.633,0.093-0.57-0.509-0.912-0.708c0.084,0.456-0.789,0.485-1.011,0.303
				c0.398,0.162,0.034-0.437,0.304-0.404c0.144,0.024,0.171,0.166,0.304,0.202c0.031-0.429,0.518-0.515,0.303-0.911
				c-0.533,0.039-1.626-0.005-2.225,0.101c-0.058,0.181-0.053,0.42-0.203,0.506c-0.15-0.119-0.118-0.421-0.405-0.405
				c-0.113,0.325-0.355,0.521-0.707,0.608c-0.085-0.535-0.903-0.043-1.518-0.203c0.024,0.379,0.411,0.397,0.605,0.607
				c-0.013,0.29-0.421,0.185-0.707,0.203c-0.101,0.202,0.048,0.727-0.404,0.809c-0.036-0.468,0.022-0.731-0.102-0.911
				c-0.29,0.286-0.858,0.824-1.214,0.708c-0.108-0.377,0.251-0.288,0.201-0.606c-0.129-0.006-0.139-0.13-0.304-0.102
				c0.271-0.337,0.764-0.452,1.114-0.708c3.121-0.915,6.052-1.347,9.61-1.316c0.505,1.451,1.533,2.379,3.137,2.731
				c0.569-0.172,1.136-0.348,1.82-0.404c0.588-0.425,0.895-1.129,1.417-1.619c0.758,0.5,2.978,0.894,2.226,1.922
				c-0.194-0.187-0.079-0.185-0.404-0.101c-0.091,0.667,0.496,0.194,0.404,0.708c-0.215,0.373-0.541,0.109-0.708-0.101
				c-0.002,0.642,0.302,0.979,0.405,1.517C72.875,42.763,73.673,45.123,74.97,45.605z M63.537,44.795
				c0.098-0.442,0.532-0.547,0.507-1.112c-0.079-0.022-0.119-0.085-0.103-0.203c-0.434,0.105-0.391,0.058-0.707-0.101
				C63.237,43.861,63.563,44.353,63.537,44.795z M59.592,44.694c0.47,0.123,0.486-0.402,0.101-0.405
				C59.661,44.426,59.549,44.482,59.592,44.694z M62.222,48.539c-2.289,0.494-4.009,1.662-5.463,2.934
				c-1.118,0.978-2.217,2.073-2.53,3.541c-0.375-0.107-0.158,0.38-0.505,0.304c-0.838,2.159-1.081,4.992-0.909,7.386
				c0.571,1.686,1.152,3.365,1.82,4.957c0.835,0.956,1.894,2.208,2.832,3.035c0.139,0.121,0.194,0.419,0.305,0.506
				c0.713,0.567,1.584,0.799,2.327,1.214c0.077,0.044,0.236,0.361,0.304,0.404c0.064,0.043,0.284,0.196,0.302,0.203
				c2.268,0.823,5.361,1.599,7.791,0.708c0.404,0,0.809,0,1.213,0c1.083-0.503,2.177-0.994,3.339-1.417
				c0.854-0.63,1.553-1.414,2.529-1.922c1.169-1.76,2.944-3.949,3.237-6.88c0.239-2.379-0.326-5.028-0.809-6.777
				c-1.347-2.297-2.469-4.817-4.756-6.171c-0.001-0.27,0.039-0.579-0.101-0.708c-0.482-0.146-0.252,0.423-0.708,0.303
				C69.802,48.557,66.062,47.709,62.222,48.539z M83.062,53.395c0.024,0.431,0.52,0.272,0.606,0
				C83.352,53.445,83.274,53.174,83.062,53.395z M52.308,54.205c0.042-0.193,0.288-0.184,0.201-0.506
				c-0.189,0.022-0.221-0.115-0.404-0.102C52.106,53.865,52.049,54.193,52.308,54.205z M83.669,54.71
				c-0.075-0.413,0.656-0.02,0.508-0.505c-0.246,0.041-0.222-0.186-0.508-0.101C83.811,54.394,83.394,54.617,83.669,54.71z
				 M80.331,55.013c0.135-0.066,0.188-0.216,0.202-0.404c-0.117-0.084-0.271-0.134-0.506-0.101
				C80.04,54.766,80.047,55.028,80.331,55.013z M81.545,55.013c0.362,0.023,0.529-0.145,0.507-0.505
				C81.69,54.484,81.521,54.653,81.545,55.013z M79.927,55.924c0.158,0.113,0.21,0.33,0.506,0.303c0-0.168,0-0.336,0-0.506
				C80.183,55.707,79.941,55.703,79.927,55.924z M90.651,59.263c0.096-0.366-0.438-0.103-0.507-0.304
				C90.017,59.357,90.384,59.259,90.651,59.263z M78.005,70.087c-0.046-0.191,0.136-0.609-0.204-0.506
				C77.737,69.828,77.598,70.102,78.005,70.087z M68.596,75.348c0.134,0.001,0.092,0.178,0.202,0.202
				c-0.111-0.323,0.598-0.334,0.203-0.606C68.909,75.122,68.627,75.111,68.596,75.348z"/>
			<path fill-rule="evenodd" clip-rule="evenodd" fill="#205997" d="M57.671,38.523c0.277-0.306,0.216,0.587,0.809,0.304
				c-0.064,0.307-0.226,0.517-0.607,0.505C58.081,38.96,57.84,38.776,57.671,38.523z"/>
			<path fill-rule="evenodd" clip-rule="evenodd" fill="#44B4E4" d="M81.646,44.492c0.254-0.018,0.319,0.156,0.406,0.303
				c-0.351-0.215-0.328,0.532,0,0.607c-0.525,0.352-0.422,1.333-1.113,1.518c0.146,0.055,0.521-0.119,0.505,0.101
				c-1.073,0.215-0.426,2.071-0.81,2.731c-0.203-0.32,0.316-1.137-0.303-1.214c-0.237,0.033-0.099,0.441-0.304,0.506
				c0.083-0.286-0.142-0.262-0.101-0.506c-0.616-0.111-0.748,0.264-0.708,0.81c-0.067,0-0.136,0-0.203,0
				c-0.606,1.131-2.179,0.49-3.237,0.202c-0.299-0.544-0.518-1.169-1.011-1.518c-0.196-0.773,0.268-0.966,0-1.214
				c0.504-0.11,0.378-0.936,0.202-1.214c0.563-0.127,1.206,0.364,1.416,0.91c0.049-0.37,0.763,0.06,1.113-0.202
				c-0.23,1.104-1.659,1.487-1.316,2.833c0.239-0.002,0.298,0.174,0.607,0.101c0.733-1.052,1.96-1.615,2.63-2.731
				c-0.029,0.23,0.025,0.381,0.203,0.405c0.039-1.162,0.993-0.39,1.416-0.911c-0.374-0.35,0.446-0.358,0.203-0.911
				C81.197,44.718,81.456,44.638,81.646,44.492z M79.927,47.325c0.023-0.28,0.57-0.036,0.506-0.404
				C80.046,46.778,79.656,47.145,79.927,47.325z"/>
			<path fill-rule="evenodd" clip-rule="evenodd" fill="#17364E" d="M83.669,54.104c0.286-0.084,0.262,0.142,0.508,0.101
				c0.148,0.486-0.583,0.093-0.508,0.505C83.394,54.617,83.811,54.394,83.669,54.104z"/>
			<path fill-rule="evenodd" clip-rule="evenodd" fill="#939FAB" d="M61.312,58.251c-0.113,0.786,0.284,1.064,1.009,1.012
				c0.429-0.484,0.523-1.299,0.913-1.821c0.711-0.064,0.908-0.642,1.314-1.011c-0.838-0.364-1.326,0.494-2.022,0.607
				c0.615-0.612,1.782-1.362,2.933-0.81c-0.086,0.082-0.06,0.278-0.2,0.304c0.339,0.457,0.661,0.313,1.313,0.405
				c0.224-0.013,0.043-0.43,0.101-0.607c0.244,0.042,0.222-0.185,0.505-0.102c-0.003,0.173,0.077,0.263,0.202,0.304
				c-0.022,0.11-0.199,0.069-0.202,0.203c0.234,0.309,0.728-0.106,1.114,0.102c0.189,0.192,0.012,0.254,0,0.505
				c0.076,0.228,0.568,0.04,0.81,0.101c0.167,0.543,0.447,1.351,0.81,1.012c0.226,1.025,0.033,1.666,0.102,2.428
				c-0.287-0.583-0.446,0.568-0.911,0.101c0.228,0.593-0.588,0.476-0.202,0.911c-0.212,0.059-0.29,0.25-0.607,0.203
				c-0.852-0.76-2.846,0.642-4.351,0.202c-0.15-0.42-0.279-0.867-0.909-0.809c-0.267-0.516-0.482-0.883-0.304-1.619
				c-0.194-0.616-1.165-0.453-1.619-0.81c-0.079-0.381,0.124-0.484,0.102-0.809C61.244,58.251,61.277,58.251,61.312,58.251z
				 M63.84,59.263c-0.157-0.043-0.085-0.318-0.404-0.203c-0.173,0.49-0.325,1.465-0.403,1.72c0.65,0.907,1.406,1.507,2.832,0.911
				c1.034-0.992,0.048-2.841-1.417-2.529c0.203-0.203-0.075-0.439-0.304-0.507C64.069,58.894,64.153,59.085,63.84,59.263z"/>
			<path fill-rule="evenodd" clip-rule="evenodd" fill="#C2B59B" stroke="#ED1F24" d="M72.44,50.157
				c0.456,0.12,0.226-0.449,0.708-0.303c0.14,0.13,0.1,0.439,0.101,0.708c2.287,1.354,3.409,3.874,4.756,6.171
				c0.482,1.749,1.048,4.398,0.809,6.777c-0.293,2.932-2.068,5.12-3.237,6.88c-0.977,0.508-1.676,1.292-2.529,1.922
				c-1.162,0.423-2.256,0.914-3.339,1.417c-0.404,0-0.809,0-1.213,0c-2.43,0.891-5.523,0.115-7.791-0.708
				c-0.018-0.007-0.237-0.16-0.302-0.203c-0.067-0.043-0.227-0.36-0.304-0.404c-0.743-0.415-1.614-0.646-2.327-1.214
				c-0.11-0.087-0.166-0.385-0.305-0.506c-0.938-0.827-1.997-2.08-2.832-3.035c-0.668-1.592-1.249-3.271-1.82-4.957
				c-0.172-2.394,0.071-5.227,0.909-7.386c0.347,0.076,0.13-0.411,0.505-0.304c0.313-1.468,1.412-2.563,2.53-3.541
				c1.454-1.271,3.174-2.439,5.463-2.934C66.062,47.709,69.802,48.557,72.44,50.157z M68.292,62.095
				c-2.162,0.452-4.828,1.517-6.07-0.607c-0.327,0.415-1.246-0.021-1.618-0.203c0.217,3.414,3.128,5.867,6.272,5.059
				c-0.12-0.016-0.288,0.017-0.304-0.102c0.717,0.181,1.62-0.25,2.226-0.607c0.162-0.735-0.246-0.899-0.303-1.416
				c0.646-0.108,0.591,0.488,0.606,1.012c0.362-0.01,0.547-0.196,0.606-0.506c-0.118-0.016-0.287,0.018-0.304-0.102
				c0.161-0.336,0.466,0.101,0.507-0.303c0.162-0.398-0.438-0.035-0.405-0.303c0.05-0.12,0.107-0.229,0.202-0.304
				c0.199-0.029,0.201,0.138,0.305,0.203c0.032-0.423-0.211-0.641,0-1.012c0.233-0.031,0.113,0.292,0.303,0.303
				c0.207-0.164-0.006-0.746,0.202-0.91c-0.435,0.098-0.28-0.395-0.505-0.505c-0.44,0.092-0.617,0.294-1.113,0.101
				c-0.386-0.435,0.43-0.318,0.202-0.911c0.465,0.468,0.624-0.684,0.911-0.101c-0.068-0.762,0.124-1.403-0.102-2.428
				c-0.362,0.339-0.643-0.468-0.81-1.012c-0.241-0.062-0.733,0.127-0.81-0.101c0.012-0.251,0.189-0.313,0-0.505
				c-0.387-0.208-0.88,0.207-1.114-0.102c0.003-0.133,0.18-0.093,0.202-0.203c-0.125-0.041-0.205-0.13-0.202-0.304
				c-0.283-0.083-0.261,0.143-0.505,0.102c-0.058,0.178,0.123,0.594-0.101,0.607c-0.652-0.092-0.975,0.052-1.313-0.405
				c0.141-0.026,0.114-0.222,0.2-0.304c-1.15-0.552-2.317,0.198-2.933,0.81c-0.595,0.215-0.982,0.637-1.214,1.214
				c-0.035,0-0.068,0-0.102,0c0.022,0.325-0.181,0.428-0.102,0.809c0.454,0.356,1.425,0.193,1.619,0.81
				c-0.179,0.735,0.037,1.103,0.304,1.619c0.63-0.058,0.759,0.389,0.909,0.809C65.446,62.737,67.44,61.335,68.292,62.095z
				 M60.503,60.881c0.415,0.131,1.029,0.031,1.517,0.303c-0.081-0.516,0.051-0.701-0.203-1.113
				c-0.111,0.006-0.557-0.519-1.011-0.506C60.707,60.008,60.573,60.412,60.503,60.881z"/>
			<path fill-rule="evenodd" clip-rule="evenodd" fill="#205997" d="M53.624,39.332c0.073-0.094,0.183-0.153,0.303-0.202
				c0.015,0.251-0.053,0.42-0.203,0.506C53.649,39.445,53.422,39.565,53.624,39.332z"/>
			<path fill-rule="evenodd" clip-rule="evenodd" fill="#E4D6C7" d="M61.312,58.251c0.231-0.577,0.619-0.999,1.214-1.214
				c0.696-0.113,1.185-0.971,2.022-0.607c-0.406,0.369-0.604,0.947-1.314,1.011c-0.39,0.522-0.484,1.337-0.913,1.821
				C61.597,59.315,61.199,59.037,61.312,58.251z"/>
			<path fill-rule="evenodd" clip-rule="evenodd" fill="#44B4E4" d="M52.004,79.193c-0.89-2.747,2.937-2.782,3.034-5.059
				c0.551-0.058,0.612-0.603,1.215-0.607c0.35,0.456,0.059,0.943-0.303,1.215c0.115,0.121,0.288,0.183,0.202,0.506
				c-0.358,0.177-0.249-0.068-0.606-0.102c-0.012,1.434-1.304,2.386-1.619,3.845C53.143,79.136,52.881,79.183,52.004,79.193z"/>
			<path fill-rule="evenodd" clip-rule="evenodd" fill="#205997" d="M64.751,40.85c-0.187,0.039-0.342,0.16-0.505,0
				c-0.379,0.094-0.132,0.812-0.202,1.214c-0.068,0-0.136,0-0.204,0c-0.232-0.067-0.243-0.35-0.504-0.607
				c-0.146,0.125-0.192,0.348-0.203,0.607c-0.538-0.153-0.092-0.82,0-1.214c-0.192,0.231-0.821,0.039-0.911,0.405
				c-0.494-0.243-0.476-0.707-0.405-1.316c0.146,0.226,0.21,0.533,0.505,0.606c0.286-0.323,0.026-0.77,0.609-0.91
				c0.144,0.134,0.144,0.573,0,0.708c0.031,0.137,0.252,0.084,0.405,0.101c0.218,0.017,0.045-0.359,0.1-0.506
				c0.339,0.244,0.863,0.245,1.214,0c-0.187-0.26,0.198-0.626,0.305-0.911c0.149,0.053,0.255,0.15,0.404,0.202
				c0.041,0.479-0.182,0.696-0.1,1.214c-0.36,0.157-0.063-0.343-0.305-0.304C64.797,40.289,64.741,40.537,64.751,40.85z"/>
			<path fill-rule="evenodd" clip-rule="evenodd" fill="#205997" d="M60.806,59.565c0.454-0.012,0.899,0.513,1.011,0.506
				c0.254,0.412,0.122,0.597,0.203,1.113c-0.487-0.272-1.102-0.172-1.517-0.303C60.573,60.412,60.707,60.008,60.806,59.565z"/>
			<path fill-rule="evenodd" clip-rule="evenodd" fill="#205997" d="M68.292,62.095c0.317,0.048,0.396-0.144,0.607-0.203
				c0.496,0.193,0.673-0.008,1.113-0.101c0.225,0.111,0.07,0.604,0.505,0.505c-0.208,0.165,0.005,0.747-0.202,0.91
				c-0.189-0.011-0.069-0.334-0.303-0.303c-0.211,0.372,0.032,0.589,0,1.012c-0.104-0.065-0.105-0.232-0.305-0.203
				c-0.095,0.075-0.152,0.185-0.202,0.304c-0.032,0.268,0.567-0.095,0.405,0.303c-0.041,0.404-0.346-0.033-0.507,0.303
				c0.017,0.119,0.186,0.085,0.304,0.102c-0.06,0.31-0.244,0.496-0.606,0.506c-0.016-0.524,0.04-1.12-0.606-1.012
				c0.057,0.517,0.465,0.681,0.303,1.416c-0.605,0.356-1.509,0.788-2.226,0.607c0.016,0.119,0.184,0.086,0.304,0.102
				c-3.145,0.808-6.056-1.645-6.272-5.059c0.372,0.182,1.291,0.617,1.618,0.203C63.464,63.612,66.13,62.547,68.292,62.095z"/>
		</g>
	</g>
</g>
<g>
	<path d="M78.301,130.74l-0.384-2.921l-5.427,0.713l-0.245-1.865l3.654-8.073l3.506-0.461l0.944,7.181l1.47-0.193l0.282,2.148
		l-1.47,0.193l0.384,2.921L78.301,130.74z M77.635,125.67l-0.356-2.713c-0.097-0.735-0.157-1.494-0.205-2.293l-0.075,0.01
		c-0.292,0.844-0.518,1.603-0.832,2.43l-1.288,2.891l0.005,0.038L77.635,125.67z"/>
	<path d="M90.566,119.062l-4.749,0.624l-0.016,1.92c0.258-0.072,0.484-0.102,0.786-0.142c1.168-0.153,2.391-0.045,3.338,0.462
		c1.006,0.502,1.705,1.444,1.894,2.876c0.3,2.281-1.396,4.556-4.693,4.989c-1.488,0.195-2.777,0.02-3.503-0.249l0.227-2.216
		c0.581,0.192,1.737,0.385,2.85,0.239c1.188-0.156,2.376-0.888,2.205-2.188c-0.166-1.263-1.267-1.903-3.716-1.582
		c-0.679,0.09-1.145,0.188-1.646,0.331l-0.033-6.533l6.747-0.887L90.566,119.062z"/>
	<path d="M93.589,122.908c0.498,0.218,1.498,0.422,2.241,0.324c0.758-0.099,1.036-0.404,0.982-0.816
		c-0.055-0.412-0.327-0.578-1.309-0.769c-1.739-0.342-2.502-1.164-2.611-2.123c-0.197-1.5,0.939-2.808,2.936-3.069
		c0.939-0.124,1.81-0.02,2.336,0.162l-0.217,1.791c-0.391-0.151-1.116-0.324-1.809-0.233c-0.61,0.08-0.924,0.374-0.87,0.786
		c0.05,0.38,0.389,0.536,1.424,0.753c1.604,0.326,2.348,1.017,2.521,2.201c0.197,1.502-0.846,2.762-3.154,3.065
		c-1.056,0.139-2.026,0.033-2.681-0.217L93.589,122.908z"/>
</g>
</svg>
