<?xml version="1.0" encoding="utf-8"?>
<!-- Generator: Adobe Illustrator 14.0.0, SVG Export Plug-In . SVG Version: 6.00 Build 43363)  -->
<!DOCTYPE svg PUBLIC "-//W3C//DTD SVG 1.1//EN" "http://www.w3.org/Graphics/SVG/1.1/DTD/svg11.dtd">
<svg version="1.1" id="Layer_1" xmlns="http://www.w3.org/2000/svg" xmlns:xlink="http://www.w3.org/1999/xlink" x="0px" y="0px"
	 width="72px" height="72px" viewBox="0 0 72 72" enable-background="new 0 0 72 72" xml:space="preserve">
<g>
	<g>
		<linearGradient id="SVGID_1_" gradientUnits="userSpaceOnUse" x1="13.8433" y1="13.4438" x2="58.7024" y2="58.303">
			<stop  offset="0" style="stop-color:#5271B7"/>
			<stop  offset="0.1556" style="stop-color:#4F6CB3"/>
			<stop  offset="0.4088" style="stop-color:#485EA9"/>
			<stop  offset="0.726" style="stop-color:#3E479B"/>
			<stop  offset="1" style="stop-color:#352F8E"/>
		</linearGradient>
		<path fill="url(#SVGID_1_)" d="M67.993,35.875c0-17.521-14.199-31.723-31.719-31.723S4.553,18.354,4.553,35.875
			c0,15.832,11.599,28.956,26.765,31.334V45.043h-8.053v-9.168h8.053v-6.989c0-7.951,4.736-12.342,11.979-12.342
			c3.474,0,7.102,0.621,7.102,0.621v7.807H46.4c-3.942,0-5.17,2.446-5.17,4.952v5.953h8.797l-1.404,9.168H41.23v22.166
			C56.393,64.831,67.993,51.707,67.993,35.875z"/>
		<path fill="#FFFFFF" d="M48.623,45.043l1.404-9.168H41.23v-5.953c0-2.506,1.228-4.952,5.17-4.952h3.998v-7.807
			c0,0-3.628-0.621-7.102-0.621c-7.243,0-11.979,4.392-11.979,12.342v6.989h-8.053v9.168h8.053v22.166
			c1.616,0.256,3.271,0.388,4.957,0.388c1.686,0,3.342-0.132,4.956-0.388V45.043H48.623z"/>
	</g>
</g>
</svg>
