<?xml version="1.0" encoding="utf-8"?>
<!-- Generator: Adobe Illustrator 14.0.0, SVG Export Plug-In . SVG Version: 6.00 Build 43363)  -->
<!DOCTYPE svg PUBLIC "-//W3C//DTD SVG 1.1//EN" "http://www.w3.org/Graphics/SVG/1.1/DTD/svg11.dtd">
<svg version="1.1" xmlns="http://www.w3.org/2000/svg" xmlns:xlink="http://www.w3.org/1999/xlink" x="0px" y="0px" width="72px"
	 height="72px" viewBox="0 0 72 72" enable-background="new 0 0 72 72" xml:space="preserve">
<g id="FB" display="none">
	<g display="inline">
		<g>
			<linearGradient id="SVGID_1_" gradientUnits="userSpaceOnUse" x1="13.8433" y1="13.4438" x2="58.7024" y2="58.303">
				<stop  offset="0" style="stop-color:#5271B7"/>
				<stop  offset="0.1556" style="stop-color:#4F6CB3"/>
				<stop  offset="0.4088" style="stop-color:#485EA9"/>
				<stop  offset="0.726" style="stop-color:#3E479B"/>
				<stop  offset="1" style="stop-color:#352F8E"/>
			</linearGradient>
			<path fill="url(#SVGID_1_)" d="M67.993,35.875c0-17.521-14.199-31.723-31.719-31.723S4.553,18.354,4.553,35.875
				c0,15.832,11.599,28.956,26.765,31.334V45.043h-8.053v-9.168h8.053v-6.989c0-7.951,4.736-12.342,11.979-12.342
				c3.474,0,7.102,0.621,7.102,0.621v7.807H46.4c-3.942,0-5.17,2.446-5.17,4.952v5.953h8.797l-1.404,9.168H41.23v22.166
				C56.393,64.831,67.993,51.707,67.993,35.875z"/>
			<path fill="#FFFFFF" d="M48.623,45.043l1.404-9.168H41.23v-5.953c0-2.506,1.228-4.952,5.17-4.952h3.998v-7.807
				c0,0-3.628-0.621-7.102-0.621c-7.243,0-11.979,4.392-11.979,12.342v6.989h-8.053v9.168h8.053v22.166
				c1.616,0.256,3.271,0.388,4.957,0.388c1.686,0,3.342-0.132,4.956-0.388V45.043H48.623z"/>
		</g>
	</g>
</g>
<g id="Insta">
	<g>
		<linearGradient id="SVGID_2_" gradientUnits="userSpaceOnUse" x1="58.8418" y1="12.9297" x2="14.1347" y2="57.6368">
			<stop  offset="0.0011" style="stop-color:#FAE08A"/>
			<stop  offset="0.2094" style="stop-color:#FCBB46"/>
			<stop  offset="0.3765" style="stop-color:#F05475"/>
			<stop  offset="0.5238" style="stop-color:#D53992"/>
			<stop  offset="0.7394" style="stop-color:#7E50A0"/>
			<stop  offset="1" style="stop-color:#5C5DA9"/>
		</linearGradient>
		<circle fill="url(#SVGID_2_)" cx="36.488" cy="35.284" r="31.613"/>
		<g>
			<g>
				<path fill="#FFFFFF" d="M46.302,23.322c-1.202,0-2.172,0.975-2.172,2.175c0,1.199,0.97,2.173,2.172,2.173
					c1.203,0,2.171-0.974,2.171-2.173C48.473,24.297,47.505,23.322,46.302,23.322z"/>
				<path fill="#FFFFFF" d="M36.641,26.111c-5.035,0-9.13,4.096-9.13,9.127c0,5.034,4.096,9.13,9.13,9.13
					c5.038,0,9.129-4.096,9.129-9.13C45.77,30.207,41.679,26.111,36.641,26.111z M36.641,41.085c-3.224,0-5.847-2.623-5.847-5.847
					c0-3.225,2.623-5.847,5.847-5.847c3.225,0,5.846,2.622,5.846,5.847C42.486,38.462,39.865,41.085,36.641,41.085z"/>
				<path fill="#FFFFFF" d="M43.89,53.771H29.09c-6.142,0-11.135-4.992-11.135-11.134V27.839c0-6.141,4.993-11.134,11.135-11.134
					H43.89c6.138,0,11.135,4.993,11.135,11.134v14.797C55.024,48.778,50.027,53.771,43.89,53.771z M29.09,20.192
					c-4.216,0-7.647,3.43-7.647,7.647v14.797c0,4.219,3.431,7.648,7.647,7.648H43.89c4.216,0,7.644-3.43,7.644-7.648V27.839
					c0-4.217-3.428-7.647-7.644-7.647H29.09z"/>
			</g>
		</g>
	</g>
</g>
</svg>
