<?xml version="1.0" encoding="utf-8"?>
<!-- Generator: Adobe Illustrator 14.0.0, SVG Export Plug-In . SVG Version: 6.00 Build 43363)  -->
<!DOCTYPE svg PUBLIC "-//W3C//DTD SVG 1.1//EN" "http://www.w3.org/Graphics/SVG/1.1/DTD/svg11.dtd">
<svg version="1.1" xmlns="http://www.w3.org/2000/svg" xmlns:xlink="http://www.w3.org/1999/xlink" x="0px" y="0px" width="72px"
	 height="72px" viewBox="0 0 72 72" enable-background="new 0 0 72 72" xml:space="preserve">
<g id="FB" display="none">
	<g display="inline">
		<g>
			<linearGradient id="SVGID_1_" gradientUnits="userSpaceOnUse" x1="13.8433" y1="13.4438" x2="58.7024" y2="58.303">
				<stop  offset="0" style="stop-color:#5271B7"/>
				<stop  offset="0.1556" style="stop-color:#4F6CB3"/>
				<stop  offset="0.4088" style="stop-color:#485EA9"/>
				<stop  offset="0.726" style="stop-color:#3E479B"/>
				<stop  offset="1" style="stop-color:#352F8E"/>
			</linearGradient>
			<path fill="url(#SVGID_1_)" d="M67.993,35.875c0-17.521-14.199-31.723-31.719-31.723S4.553,18.354,4.553,35.875
				c0,15.832,11.599,28.956,26.765,31.334V45.043h-8.053v-9.168h8.053v-6.989c0-7.951,4.736-12.342,11.979-12.342
				c3.474,0,7.102,0.621,7.102,0.621v7.807H46.4c-3.942,0-5.17,2.446-5.17,4.952v5.953h8.797l-1.404,9.168H41.23v22.166
				C56.393,64.831,67.993,51.707,67.993,35.875z"/>
			<path fill="#FFFFFF" d="M48.623,45.043l1.404-9.168H41.23v-5.953c0-2.506,1.228-4.952,5.17-4.952h3.998v-7.807
				c0,0-3.628-0.621-7.102-0.621c-7.243,0-11.979,4.392-11.979,12.342v6.989h-8.053v9.168h8.053v22.166
				c1.616,0.256,3.271,0.388,4.957,0.388c1.686,0,3.342-0.132,4.956-0.388V45.043H48.623z"/>
		</g>
	</g>
</g>
<g id="Insta" display="none">
	<g display="inline">
		<linearGradient id="SVGID_2_" gradientUnits="userSpaceOnUse" x1="58.8418" y1="12.9297" x2="14.1347" y2="57.6368">
			<stop  offset="0.0011" style="stop-color:#FAE08A"/>
			<stop  offset="0.2094" style="stop-color:#FCBB46"/>
			<stop  offset="0.3765" style="stop-color:#F05475"/>
			<stop  offset="0.5238" style="stop-color:#D53992"/>
			<stop  offset="0.7394" style="stop-color:#7E50A0"/>
			<stop  offset="1" style="stop-color:#5C5DA9"/>
		</linearGradient>
		<circle fill="url(#SVGID_2_)" cx="36.488" cy="35.284" r="31.613"/>
		<g>
			<g>
				<path fill="#FFFFFF" d="M46.302,23.322c-1.202,0-2.172,0.975-2.172,2.175c0,1.199,0.97,2.173,2.172,2.173
					c1.203,0,2.171-0.974,2.171-2.173C48.473,24.297,47.505,23.322,46.302,23.322z"/>
				<path fill="#FFFFFF" d="M36.641,26.111c-5.035,0-9.13,4.096-9.13,9.127c0,5.034,4.096,9.13,9.13,9.13
					c5.038,0,9.129-4.096,9.129-9.13C45.77,30.207,41.679,26.111,36.641,26.111z M36.641,41.085c-3.224,0-5.847-2.623-5.847-5.847
					c0-3.225,2.623-5.847,5.847-5.847c3.225,0,5.846,2.622,5.846,5.847C42.486,38.462,39.865,41.085,36.641,41.085z"/>
				<path fill="#FFFFFF" d="M43.89,53.771H29.09c-6.142,0-11.135-4.992-11.135-11.134V27.839c0-6.141,4.993-11.134,11.135-11.134
					H43.89c6.138,0,11.135,4.993,11.135,11.134v14.797C55.024,48.778,50.027,53.771,43.89,53.771z M29.09,20.192
					c-4.216,0-7.647,3.43-7.647,7.647v14.797c0,4.219,3.431,7.648,7.647,7.648H43.89c4.216,0,7.644-3.43,7.644-7.648V27.839
					c0-4.217-3.428-7.647-7.644-7.647H29.09z"/>
			</g>
		</g>
	</g>
</g>
<g id="Layer_3" display="none">
	<g display="inline">
		<linearGradient id="SVGID_3_" gradientUnits="userSpaceOnUse" x1="58.7959" y1="13.2383" x2="13.7501" y2="58.2841">
			<stop  offset="0" style="stop-color:#86C76B"/>
			<stop  offset="1" style="stop-color:#4AB161"/>
		</linearGradient>
		<circle fill="url(#SVGID_3_)" cx="36.272" cy="35.76" r="31.853"/>
		<path fill="#FFFFFF" d="M19.063,53.785l2.655-9.907c-1.504-2.714-2.295-5.754-2.295-8.84c0-10.087,8.208-18.296,18.296-18.296
			c10.09,0,18.297,8.209,18.297,18.296c0,10.088-8.207,18.297-18.297,18.297c-3.028,0-6.02-0.765-8.697-2.218L19.063,53.785z
			 M29.518,47.405l0.628,0.374c2.303,1.371,4.922,2.097,7.574,2.097c8.181,0,14.837-6.656,14.837-14.838
			c0-8.182-6.656-14.838-14.837-14.838c-8.182,0-14.837,6.656-14.837,14.838c0,2.7,0.75,5.36,2.169,7.694l0.385,0.631l-1.481,5.532
			L29.518,47.405z"/>
		<path fill-rule="evenodd" clip-rule="evenodd" fill="#FFFFFF" d="M44.525,37.583c-0.754-0.451-1.731-0.954-2.621-0.591
			c-0.68,0.278-1.114,1.346-1.557,1.889c-0.224,0.278-0.496,0.322-0.843,0.183c-2.555-1.018-4.512-2.724-5.922-5.074
			c-0.239-0.364-0.196-0.652,0.092-0.992c0.427-0.5,0.96-1.072,1.076-1.747c0.116-0.675-0.201-1.466-0.481-2.067
			c-0.356-0.77-0.756-1.865-1.526-2.301c-0.708-0.399-1.641-0.176-2.272,0.338c-1.088,0.886-1.614,2.275-1.597,3.652
			c0.004,0.392,0.051,0.782,0.143,1.159c0.22,0.91,0.641,1.755,1.112,2.563c0.357,0.609,0.744,1.199,1.161,1.765
			c1.367,1.856,3.067,3.471,5.037,4.675c0.983,0.603,2.042,1.131,3.14,1.493c1.229,0.407,2.325,0.831,3.654,0.579
			c1.392-0.266,2.763-1.126,3.314-2.465c0.161-0.399,0.246-0.841,0.152-1.26C46.399,38.518,45.228,38.001,44.525,37.583z"/>
	</g>
</g>
<g id="Layer_4">
	<g>
		<linearGradient id="SVGID_4_" gradientUnits="userSpaceOnUse" x1="58.1572" y1="12.7227" x2="13.7319" y2="57.1479">
			<stop  offset="0" style="stop-color:#47C8F5"/>
			<stop  offset="1" style="stop-color:#4E77BB"/>
		</linearGradient>
		<circle fill="url(#SVGID_4_)" cx="35.944" cy="34.935" r="31.414"/>
		<path fill="#FFFFFF" d="M53.3,24.17c-1.087,0.492-2.291,0.791-3.464,0.987c0.557-0.093,1.375-1.102,1.703-1.51
			c0.502-0.621,0.916-1.331,1.15-2.097c0.029-0.061,0.052-0.134-0.008-0.18c-0.076-0.031-0.125-0.014-0.185,0.015
			c-1.31,0.703-2.664,1.212-4.107,1.572c-0.12,0.029-0.208,0-0.283-0.076c-0.119-0.135-0.231-0.262-0.359-0.367
			c-0.606-0.515-1.256-0.92-1.99-1.219c-0.962-0.393-2.015-0.559-3.052-0.491c-1.01,0.065-2,0.35-2.896,0.818
			c-0.897,0.468-1.697,1.121-2.336,1.908c-0.659,0.813-1.146,1.774-1.395,2.793c-0.241,0.983-0.221,1.956-0.074,2.95
			c0.021,0.165,0.008,0.188-0.142,0.165c-5.643-0.839-10.319-2.858-14.116-7.185c-0.165-0.188-0.254-0.188-0.389,0.015
			c-1.662,2.49-0.855,6.491,1.219,8.457c0.277,0.263,0.561,0.525,0.869,0.763c-0.112,0.023-1.493-0.126-2.724-0.763
			c-0.164-0.104-0.248-0.044-0.262,0.143c-0.015,0.27,0.007,0.517,0.045,0.808c0.319,2.525,2.066,4.86,4.46,5.771
			c0.285,0.12,0.599,0.225,0.905,0.277c-0.545,0.12-1.107,0.205-2.671,0.082c-0.195-0.037-0.269,0.06-0.195,0.247
			c1.175,3.204,3.713,4.156,5.614,4.701c0.254,0.045,0.508,0.045,0.764,0.104c-0.016,0.021-0.031,0.021-0.045,0.044
			c-0.63,0.961-2.815,1.677-3.833,2.031c-1.851,0.647-3.866,0.939-5.821,0.746c-0.313-0.046-0.38-0.042-0.464,0
			c-0.086,0.053-0.011,0.128,0.089,0.208c0.397,0.263,0.801,0.495,1.212,0.72c1.243,0.658,2.539,1.183,3.892,1.557
			c6.994,1.932,14.872,0.513,20.124-4.706c4.123-4.097,5.568-9.747,5.568-15.405c0-0.221,0.263-0.343,0.417-0.459
			c1.073-0.806,1.938-1.771,2.739-2.849c0.18-0.241,0.181-0.457,0.181-0.545c0-0.016,0-0.03,0-0.03
			C53.44,24.08,53.439,24.107,53.3,24.17z"/>
	</g>
</g>
</svg>
